<svg xmlns="http://www.w3.org/2000/svg" xmlns:xlink="http://www.w3.org/1999/xlink" width="250" zoomAndPan="magnify" viewBox="0 0 187.5 30.000001" height="40" preserveAspectRatio="xMidYMid meet" version="1.0"><defs><g><g id="id1"/></g></defs><g fill="rgb(21.569824%, 17.248535%, 12.159729%)" fill-opacity="1"><g transform="translate(5.693223, 17.097039)"><g><path d="M 4.980469 -6.867188 L 4.980469 -8.105469 L 0.230469 -8.105469 L 0.230469 -6.867188 L 1.933594 -6.867188 L 1.933594 0 L 3.277344 0 L 3.277344 -6.867188 Z M 4.980469 -6.867188 "/></g></g></g><g fill="rgb(21.569824%, 17.248535%, 12.159729%)" fill-opacity="1"><g transform="translate(13.197299, 17.097039)"><g><path d="M 7.015625 -8.105469 L 5.664062 -8.105469 L 5.664062 -4.746094 L 2.292969 -4.746094 L 2.292969 -8.105469 L 0.9375 -8.105469 L 0.9375 0 L 2.292969 0 L 2.292969 -3.382812 L 5.664062 -3.382812 L 5.664062 0 L 7.015625 0 Z M 7.015625 -8.105469 "/></g></g></g><g fill="rgb(21.569824%, 17.248535%, 12.159729%)" fill-opacity="1"><g transform="translate(23.45715, 17.097039)"><g><path d="M 2.269531 -6.75 L 6.324219 -6.75 L 6.324219 -8.105469 L 0.914062 -8.105469 L 0.914062 0 L 6.324219 0 L 6.324219 -1.355469 L 2.269531 -1.355469 L 2.269531 -3.382812 L 5.640625 -3.382812 L 5.640625 -4.722656 L 2.269531 -4.722656 Z M 2.269531 -6.75 "/></g></g></g><g fill="rgb(21.569824%, 17.248535%, 12.159729%)" fill-opacity="1"><g transform="translate(32.582271, 17.097039)"><g/></g></g><g fill="rgb(21.569824%, 17.248535%, 12.159729%)" fill-opacity="1"><g transform="translate(38.893721, 17.097039)"><g><path d="M 2.269531 -6.75 L 6.324219 -6.75 L 6.324219 -8.105469 L 0.914062 -8.105469 L 0.914062 0 L 2.269531 0 L 2.269531 -3.382812 L 5.640625 -3.382812 L 5.640625 -4.722656 L 2.269531 -4.722656 Z M 2.269531 -6.75 "/></g></g></g><g fill="rgb(21.569824%, 17.248535%, 12.159729%)" fill-opacity="1"><g transform="translate(47.92621, 17.097039)"><g><path d="M 2.6875 -6.867188 L 3.589844 -6.867188 L 3.589844 -8.105469 L 0.429688 -8.105469 L 0.429688 -6.867188 L 1.332031 -6.867188 L 1.332031 -1.238281 L 0.382812 -1.238281 L 0.382812 0 L 3.636719 0 L 3.636719 -1.238281 L 2.6875 -1.238281 Z M 2.6875 -6.867188 "/></g></g></g><g fill="rgb(21.569824%, 17.248535%, 12.159729%)" fill-opacity="1"><g transform="translate(54.295556, 17.097039)"><g><path d="M 3.160156 0.117188 C 4.46875 0.117188 5.6875 -0.730469 5.6875 -2.28125 C 5.6875 -3.242188 5.222656 -4.054688 4.367188 -4.445312 C 3.785156 -4.714844 3.21875 -4.714844 3.160156 -4.714844 C 2.558594 -4.714844 1.980469 -5.070312 1.980469 -5.742188 C 1.980469 -6.496094 2.523438 -6.867188 3.160156 -6.867188 C 3.773438 -6.867188 4.296875 -6.566406 4.320312 -5.894531 L 5.664062 -5.894531 C 5.640625 -7.273438 4.5625 -8.222656 3.160156 -8.222656 C 1.851562 -8.222656 0.625 -7.285156 0.625 -5.742188 C 0.625 -4.78125 1.101562 -4.066406 1.945312 -3.671875 C 2.535156 -3.40625 3.089844 -3.40625 3.160156 -3.40625 C 3.707031 -3.382812 4.34375 -2.964844 4.34375 -2.28125 C 4.34375 -1.644531 3.785156 -1.238281 3.160156 -1.238281 C 2.558594 -1.238281 2.003906 -1.574219 1.980469 -2.246094 L 0.625 -2.246094 C 0.648438 -0.730469 1.761719 0.0820312 3.160156 0.117188 Z M 3.160156 0.117188 "/></g></g></g><g fill="rgb(21.569824%, 17.248535%, 12.159729%)" fill-opacity="1"><g transform="translate(62.899625, 17.097039)"><g><path d="M 7.015625 -8.105469 L 5.664062 -8.105469 L 5.664062 -4.746094 L 2.292969 -4.746094 L 2.292969 -8.105469 L 0.9375 -8.105469 L 0.9375 0 L 2.292969 0 L 2.292969 -3.382812 L 5.664062 -3.382812 L 5.664062 0 L 7.015625 0 Z M 7.015625 -8.105469 "/></g></g></g><g fill="rgb(21.569824%, 17.248535%, 12.159729%)" fill-opacity="1"><g transform="translate(73.159476, 17.097039)"><g><path d="M 2.269531 -6.75 L 6.324219 -6.75 L 6.324219 -8.105469 L 0.914062 -8.105469 L 0.914062 0 L 6.324219 0 L 6.324219 -1.355469 L 2.269531 -1.355469 L 2.269531 -3.382812 L 5.640625 -3.382812 L 5.640625 -4.722656 L 2.269531 -4.722656 Z M 2.269531 -6.75 "/></g></g></g><g fill="rgb(21.569824%, 17.248535%, 12.159729%)" fill-opacity="1"><g transform="translate(82.284597, 17.097039)"><g><path d="M 5.164062 0 L 6.75 0 L 4.550781 -3.519531 C 5.339844 -3.742188 6.335938 -4.308594 6.335938 -5.742188 C 6.335938 -8.105469 3.625 -8.105469 3.625 -8.105469 L 0.925781 -8.105469 L 0.925781 -6.75 L 2.210938 -4.722656 L 0.925781 -4.722656 L 0.925781 0 L 2.28125 0 L 2.28125 -3.382812 L 3.058594 -3.382812 Z M 3.796875 -4.734375 L 2.535156 -6.75 L 3.625 -6.75 C 3.625 -6.75 4.980469 -6.75 4.980469 -5.742188 C 4.980469 -4.945312 4.15625 -4.769531 3.796875 -4.734375 Z M 3.796875 -4.734375 "/></g></g></g><g fill="rgb(21.569824%, 17.248535%, 12.159729%)" fill-opacity="1"><g transform="translate(91.687609, 17.097039)"><g><path d="M 9.691406 0 L 9.691406 -8.117188 L 8.3125 -8.117188 L 5.363281 -1.804688 L 2.28125 -8.117188 L 0.902344 -8.117188 L 0.902344 0 L 2.257812 0 L 2.257812 -5.082031 L 4.734375 0 L 6.011719 0 L 8.335938 -4.980469 L 8.335938 0 Z M 9.691406 0 "/></g></g></g><g fill="rgb(21.569824%, 17.248535%, 12.159729%)" fill-opacity="1"><g transform="translate(104.610597, 17.097039)"><g><path d="M 4.65625 -0.9375 L 5.015625 0 L 6.472656 0 L 3.230469 -8.335938 L 0 0 L 1.460938 0 L 1.804688 -0.9375 Z M 2.246094 -2.109375 L 3.230469 -4.921875 L 4.214844 -2.109375 Z M 2.246094 -2.109375 "/></g></g></g><g fill="rgb(21.569824%, 17.248535%, 12.159729%)" fill-opacity="1"><g transform="translate(113.399931, 17.097039)"><g><path d="M 7.664062 0 L 7.664062 -8.105469 L 6.324219 -8.105469 L 6.324219 -2.339844 L 2.28125 -8.105469 L 0.914062 -8.105469 L 0.914062 0 L 2.269531 0 L 2.269531 -5.765625 L 6.300781 0 Z M 7.664062 0 "/></g></g></g><g fill="rgb(21.569824%, 17.248535%, 12.159729%)" fill-opacity="1"><g transform="translate(124.308204, 17.097039)"><g><path d="M 0.359375 -8.105469 L 0.359375 -5.523438 L 1.585938 -5.523438 L 1.585938 -8.105469 Z M 0.359375 -8.105469 "/></g></g></g><g fill="rgb(21.569824%, 17.248535%, 12.159729%)" fill-opacity="1"><g transform="translate(128.547038, 17.097039)"><g><path d="M 3.160156 0.117188 C 4.46875 0.117188 5.6875 -0.730469 5.6875 -2.28125 C 5.6875 -3.242188 5.222656 -4.054688 4.367188 -4.445312 C 3.785156 -4.714844 3.21875 -4.714844 3.160156 -4.714844 C 2.558594 -4.714844 1.980469 -5.070312 1.980469 -5.742188 C 1.980469 -6.496094 2.523438 -6.867188 3.160156 -6.867188 C 3.773438 -6.867188 4.296875 -6.566406 4.320312 -5.894531 L 5.664062 -5.894531 C 5.640625 -7.273438 4.5625 -8.222656 3.160156 -8.222656 C 1.851562 -8.222656 0.625 -7.285156 0.625 -5.742188 C 0.625 -4.78125 1.101562 -4.066406 1.945312 -3.671875 C 2.535156 -3.40625 3.089844 -3.40625 3.160156 -3.40625 C 3.707031 -3.382812 4.34375 -2.964844 4.34375 -2.28125 C 4.34375 -1.644531 3.785156 -1.238281 3.160156 -1.238281 C 2.558594 -1.238281 2.003906 -1.574219 1.980469 -2.246094 L 0.625 -2.246094 C 0.648438 -0.730469 1.761719 0.0820312 3.160156 0.117188 Z M 3.160156 0.117188 "/></g></g></g><g fill="rgb(21.569824%, 17.248535%, 12.159729%)" fill-opacity="1"><g transform="translate(137.151114, 17.097039)"><g/></g></g><g fill="rgb(21.569824%, 17.248535%, 12.159729%)" fill-opacity="1"><g transform="translate(143.462571, 17.097039)"><g><path d="M 4.703125 -1.238281 C 3.207031 -1.238281 2.015625 -2.316406 2.015625 -4.054688 C 2.015625 -5.6875 3.035156 -6.867188 4.703125 -6.867188 C 5.441406 -6.867188 6.125 -6.566406 6.613281 -6.078125 L 7.5625 -7.027344 C 6.832031 -7.769531 5.824219 -8.222656 4.703125 -8.222656 C 2.328125 -8.222656 0.636719 -6.496094 0.636719 -4.054688 C 0.636719 -1.503906 2.464844 0.117188 4.703125 0.117188 C 5.824219 0.117188 6.832031 -0.335938 7.5625 -1.066406 L 6.613281 -2.027344 C 6.125 -1.539062 5.441406 -1.238281 4.703125 -1.238281 Z M 4.703125 -1.238281 "/></g></g></g><g fill="rgb(21.569824%, 17.248535%, 12.159729%)" fill-opacity="1"><g transform="translate(153.815055, 17.097039)"><g><path d="M 4.65625 -0.9375 L 5.015625 0 L 6.472656 0 L 3.230469 -8.335938 L 0 0 L 1.460938 0 L 1.804688 -0.9375 Z M 2.246094 -2.109375 L 3.230469 -4.921875 L 4.214844 -2.109375 Z M 2.246094 -2.109375 "/></g></g></g><g fill="rgb(21.569824%, 17.248535%, 12.159729%)" fill-opacity="1"><g transform="translate(162.604396, 17.097039)"><g><path d="M 2.269531 -6.75 L 6.324219 -6.75 L 6.324219 -8.105469 L 0.914062 -8.105469 L 0.914062 0 L 2.269531 0 L 2.269531 -3.382812 L 5.640625 -3.382812 L 5.640625 -4.722656 L 2.269531 -4.722656 Z M 2.269531 -6.75 "/></g></g></g><g fill="rgb(21.569824%, 17.248535%, 12.159729%)" fill-opacity="1"><g transform="translate(171.636877, 17.097039)"><g><path d="M 2.269531 -6.75 L 6.324219 -6.75 L 6.324219 -8.105469 L 0.914062 -8.105469 L 0.914062 0 L 6.324219 0 L 6.324219 -1.355469 L 2.269531 -1.355469 L 2.269531 -3.382812 L 5.640625 -3.382812 L 5.640625 -4.722656 L 2.269531 -4.722656 Z M 2.269531 -6.75 "/></g></g></g><g fill="rgb(21.569824%, 17.248535%, 12.159729%)" fill-opacity="1"><g transform="translate(170.56858, 10.349737)"><g><path d="M 6.265625 -4.234375 L 4.28125 -2.4375 L 3.890625 -2.796875 L 5.59375 -4.875 Z M 6.265625 -4.234375 "/></g></g></g></svg>