<svg xmlns="http://www.w3.org/2000/svg" xmlns:xlink="http://www.w3.org/1999/xlink" width="500" zoomAndPan="magnify" viewBox="0 0 375 374.999991" height="500" preserveAspectRatio="xMidYMid meet" version="1.0"><defs><g/><clipPath id="id1"><path d="M 107.128906 92 L 274.378906 92 L 274.378906 270.304688 L 107.128906 270.304688 Z M 107.128906 92 " clip-rule="nonzero"/></clipPath><clipPath id="id2"><path d="M 106 103 L 261 103 L 261 272 L 106 272 Z M 106 103 " clip-rule="nonzero"/></clipPath><clipPath id="id3"><path d="M 226.980469 90.300781 L 306.277344 210.925781 L 182.824219 292.082031 L 103.527344 171.457031 Z M 226.980469 90.300781 " clip-rule="nonzero"/></clipPath><clipPath id="id4"><path d="M 206.246094 58.761719 L 306.605469 211.425781 L 158.652344 308.6875 L 58.292969 156.023438 Z M 206.246094 58.761719 " clip-rule="nonzero"/></clipPath><clipPath id="id5"><path d="M 140 114 L 187 114 L 187 123 L 140 123 Z M 140 114 " clip-rule="nonzero"/></clipPath><clipPath id="id6"><path d="M 226.980469 90.300781 L 306.277344 210.925781 L 182.824219 292.082031 L 103.527344 171.457031 Z M 226.980469 90.300781 " clip-rule="nonzero"/></clipPath><clipPath id="id7"><path d="M 206.246094 58.761719 L 306.605469 211.425781 L 158.652344 308.6875 L 58.292969 156.023438 Z M 206.246094 58.761719 " clip-rule="nonzero"/></clipPath><clipPath id="id8"><path d="M 109 134 L 142 134 L 142 169 L 109 169 Z M 109 134 " clip-rule="nonzero"/></clipPath><clipPath id="id9"><path d="M 226.980469 90.300781 L 306.277344 210.925781 L 182.824219 292.082031 L 103.527344 171.457031 Z M 226.980469 90.300781 " clip-rule="nonzero"/></clipPath><clipPath id="id10"><path d="M 206.246094 58.761719 L 306.605469 211.425781 L 158.652344 308.6875 L 58.292969 156.023438 Z M 206.246094 58.761719 " clip-rule="nonzero"/></clipPath><clipPath id="id11"><path d="M 107 154 L 128 154 L 128 198 L 107 198 Z M 107 154 " clip-rule="nonzero"/></clipPath><clipPath id="id12"><path d="M 226.980469 90.300781 L 306.277344 210.925781 L 182.824219 292.082031 L 103.527344 171.457031 Z M 226.980469 90.300781 " clip-rule="nonzero"/></clipPath><clipPath id="id13"><path d="M 206.246094 58.761719 L 306.605469 211.425781 L 158.652344 308.6875 L 58.292969 156.023438 Z M 206.246094 58.761719 " clip-rule="nonzero"/></clipPath><clipPath id="id14"><path d="M 103 141 L 109 141 L 109 188 L 103 188 Z M 103 141 " clip-rule="nonzero"/></clipPath><clipPath id="id15"><path d="M 226.980469 90.300781 L 306.277344 210.925781 L 182.824219 292.082031 L 103.527344 171.457031 Z M 226.980469 90.300781 " clip-rule="nonzero"/></clipPath><clipPath id="id16"><path d="M 206.246094 58.761719 L 306.605469 211.425781 L 158.652344 308.6875 L 58.292969 156.023438 Z M 206.246094 58.761719 " clip-rule="nonzero"/></clipPath><clipPath id="id17"><path d="M 112 178 L 124 178 L 124 226 L 112 226 Z M 112 178 " clip-rule="nonzero"/></clipPath><clipPath id="id18"><path d="M 226.980469 90.300781 L 306.277344 210.925781 L 182.824219 292.082031 L 103.527344 171.457031 Z M 226.980469 90.300781 " clip-rule="nonzero"/></clipPath><clipPath id="id19"><path d="M 206.246094 58.761719 L 306.605469 211.425781 L 158.652344 308.6875 L 58.292969 156.023438 Z M 206.246094 58.761719 " clip-rule="nonzero"/></clipPath><clipPath id="id20"><path d="M 266 216 L 270 216 L 270 221 L 266 221 Z M 266 216 " clip-rule="nonzero"/></clipPath><clipPath id="id21"><path d="M 226.980469 90.300781 L 306.277344 210.925781 L 182.824219 292.082031 L 103.527344 171.457031 Z M 226.980469 90.300781 " clip-rule="nonzero"/></clipPath><clipPath id="id22"><path d="M 206.246094 58.761719 L 306.605469 211.425781 L 158.652344 308.6875 L 58.292969 156.023438 Z M 206.246094 58.761719 " clip-rule="nonzero"/></clipPath><clipPath id="id23"><path d="M 271 195 L 275 195 L 275 200 L 271 200 Z M 271 195 " clip-rule="nonzero"/></clipPath><clipPath id="id24"><path d="M 226.980469 90.300781 L 306.277344 210.925781 L 182.824219 292.082031 L 103.527344 171.457031 Z M 226.980469 90.300781 " clip-rule="nonzero"/></clipPath><clipPath id="id25"><path d="M 206.246094 58.761719 L 306.605469 211.425781 L 158.652344 308.6875 L 58.292969 156.023438 Z M 206.246094 58.761719 " clip-rule="nonzero"/></clipPath><clipPath id="id26"><path d="M 271 174 L 275 174 L 275 178 L 271 178 Z M 271 174 " clip-rule="nonzero"/></clipPath><clipPath id="id27"><path d="M 226.980469 90.300781 L 306.277344 210.925781 L 182.824219 292.082031 L 103.527344 171.457031 Z M 226.980469 90.300781 " clip-rule="nonzero"/></clipPath><clipPath id="id28"><path d="M 206.246094 58.761719 L 306.605469 211.425781 L 158.652344 308.6875 L 58.292969 156.023438 Z M 206.246094 58.761719 " clip-rule="nonzero"/></clipPath><clipPath id="id29"><path d="M 265 153 L 269 153 L 269 157 L 265 157 Z M 265 153 " clip-rule="nonzero"/></clipPath><clipPath id="id30"><path d="M 226.980469 90.300781 L 306.277344 210.925781 L 182.824219 292.082031 L 103.527344 171.457031 Z M 226.980469 90.300781 " clip-rule="nonzero"/></clipPath><clipPath id="id31"><path d="M 206.246094 58.761719 L 306.605469 211.425781 L 158.652344 308.6875 L 58.292969 156.023438 Z M 206.246094 58.761719 " clip-rule="nonzero"/></clipPath></defs><rect x="-37.5" width="450" fill="rgb(100%, 100%, 100%)" y="-37.499999" height="449.999989" fill-opacity="1"/><rect x="-37.5" width="450" fill="rgb(100%, 100%, 100%)" y="-37.499999" height="449.999989" fill-opacity="1"/><rect x="-37.5" width="450" fill="rgb(100%, 100%, 100%)" y="-37.499999" height="449.999989" fill-opacity="1"/><path fill="rgb(100%, 100%, 100%)" d="M 187.425781 8.175781 C 88.429688 8.175781 8.175781 88.429688 8.175781 187.425781 C 8.175781 286.425781 88.429688 366.675781 187.425781 366.675781 C 286.425781 366.675781 366.675781 286.425781 366.675781 187.425781 C 366.675781 88.429688 286.425781 8.175781 187.425781 8.175781 " fill-opacity="1" fill-rule="nonzero"/><path fill="rgb(29.40979%, 23.529053%, 16.468811%)" d="M 187.355469 366.535156 C 139.519531 366.535156 94.472656 347.917969 60.671875 314.042969 C 26.796875 280.242188 8.175781 235.195312 8.175781 187.355469 C 8.175781 139.519531 26.796875 94.472656 60.671875 60.671875 C 94.472656 26.796875 139.519531 8.175781 187.355469 8.175781 C 235.195312 8.175781 280.242188 26.796875 314.042969 60.671875 C 347.917969 94.542969 366.535156 139.519531 366.535156 187.355469 C 366.535156 235.195312 347.917969 280.242188 314.042969 314.042969 C 280.242188 347.917969 235.195312 366.535156 187.355469 366.535156 Z M 187.355469 18.917969 C 142.382812 18.917969 100.058594 36.464844 68.261719 68.261719 C 36.464844 100.058594 18.917969 142.382812 18.917969 187.355469 C 18.917969 232.332031 36.464844 274.65625 68.261719 306.453125 C 100.058594 338.25 142.382812 355.792969 187.355469 355.792969 C 232.332031 355.792969 274.65625 338.25 306.453125 306.453125 C 338.25 274.65625 355.792969 232.332031 355.792969 187.355469 C 355.792969 142.382812 338.25 100.058594 306.453125 68.261719 C 274.65625 36.464844 232.332031 18.917969 187.355469 18.917969 Z M 187.355469 18.917969 " fill-opacity="1" fill-rule="nonzero"/><path fill="rgb(100%, 96.469116%, 86.669922%)" d="M 187.414062 27.289062 C 98.980469 27.289062 27.289062 98.980469 27.289062 187.414062 C 27.289062 275.851562 98.980469 347.539062 187.414062 347.539062 C 275.851562 347.539062 347.539062 275.851562 347.539062 187.414062 C 347.539062 98.980469 275.851562 27.289062 187.414062 27.289062 " fill-opacity="1" fill-rule="nonzero"/><g fill="rgb(21.569824%, 17.248535%, 12.159729%)" fill-opacity="1"><g transform="translate(69.432337, 224.286498)"><g><path d="M -21.054688 -9.496094 L -24.359375 -8.8125 L -21.746094 3.847656 L -18.441406 3.164062 L -19.378906 -1.375 L -1.066406 -5.15625 L -1.804688 -8.738281 L -20.117188 -4.957031 Z M -21.054688 -9.496094 "/></g></g></g><g fill="rgb(21.569824%, 17.248535%, 12.159729%)" fill-opacity="1"><g transform="translate(65.659247, 205.382372)"><g><path d="M -22.371094 -18.765625 L -22.3125 -15.074219 L -13.167969 -15.21875 L -13.023438 -6.042969 L -22.167969 -5.898438 L -22.113281 -2.210938 L -0.0390625 -2.554688 L -0.0976562 -6.242188 L -9.304688 -6.101562 L -9.445312 -15.273438 L -0.238281 -15.417969 L -0.296875 -19.109375 Z M -22.371094 -18.765625 "/></g></g></g><g fill="rgb(21.569824%, 17.248535%, 12.159729%)" fill-opacity="1"><g transform="translate(65.921121, 178.747969)"><g><path d="M -16.890625 -9.535156 L -14.808594 -20.375 L -18.429688 -21.070312 L -21.207031 -6.609375 L 0.46875 -2.445312 L 3.246094 -16.910156 L -0.375 -17.605469 L -2.457031 -6.765625 L -7.878906 -7.804688 L -6.148438 -16.816406 L -9.738281 -17.507812 L -11.46875 -8.496094 Z M -16.890625 -9.535156 "/></g></g></g><g fill="rgb(21.569824%, 17.248535%, 12.159729%)" fill-opacity="1"><g transform="translate(76.846198, 140.411321)"><g><path d="M -12.945312 -14.441406 L -7.503906 -24.042969 L -10.714844 -25.863281 L -17.976562 -13.050781 L 1.226562 -2.167969 L 3.046875 -5.378906 L -4.960938 -9.917969 L -0.4375 -17.902344 L -3.621094 -19.703125 L -8.144531 -11.722656 Z M -12.945312 -14.441406 "/></g></g></g><g fill="rgb(21.569824%, 17.248535%, 12.159729%)" fill-opacity="1"><g transform="translate(89.078494, 120.30213)"><g><path d="M -9.960938 -17.433594 L -8.417969 -19.347656 L -11.042969 -21.46875 L -16.449219 -14.765625 L -13.824219 -12.648438 L -12.277344 -14.5625 L -0.347656 -4.941406 L -1.972656 -2.929688 L 0.652344 -0.808594 L 6.21875 -7.707031 L 3.589844 -9.824219 L 1.96875 -7.8125 Z M -9.960938 -17.433594 "/></g></g></g><g fill="rgb(21.569824%, 17.248535%, 12.159729%)" fill-opacity="1"><g transform="translate(99.478857, 107.688569)"><g><path d="M 6.605469 -5.527344 C 9.253906 -7.914062 10.171875 -11.839844 7.34375 -14.980469 C 5.589844 -16.925781 3.175781 -17.71875 0.726562 -16.953125 C -0.933594 -16.4375 -2.078125 -15.402344 -2.195312 -15.296875 C -3.414062 -14.199219 -5.242188 -13.871094 -6.464844 -15.230469 C -7.835938 -16.753906 -7.410156 -18.492188 -6.125 -19.65625 C -4.882812 -20.773438 -3.277344 -21.113281 -2.007812 -19.796875 L 0.710938 -22.246094 C -1.847656 -24.992188 -5.757812 -24.949219 -8.59375 -22.394531 C -11.242188 -20.011719 -12.011719 -15.875 -9.207031 -12.757812 C -7.453125 -10.816406 -5.183594 -10.226562 -2.757812 -10.972656 C -1.078125 -11.511719 0.046875 -12.523438 0.1875 -12.652344 C 1.332031 -13.597656 3.378906 -13.914062 4.625 -12.53125 C 5.785156 -11.242188 5.402344 -9.410156 4.136719 -8.269531 C 2.917969 -7.171875 1.183594 -6.839844 -0.0898438 -8.15625 L -2.832031 -5.683594 C -0.0195312 -2.65625 3.707031 -3.042969 6.605469 -5.527344 Z M 6.605469 -5.527344 "/></g></g></g><g fill="rgb(21.569824%, 17.248535%, 12.159729%)" fill-opacity="1"><g transform="translate(116.152531, 93.041348)"><g><path d="M 5.222656 -28.726562 L 2.046875 -26.847656 L 6.699219 -18.976562 L -1.203125 -14.308594 L -5.855469 -22.179688 L -9.03125 -20.304688 L 2.199219 -1.300781 L 5.375 -3.175781 L 0.691406 -11.105469 L 8.589844 -15.773438 L 13.277344 -7.84375 L 16.453125 -9.722656 Z M 5.222656 -28.726562 "/></g></g></g><g fill="rgb(21.569824%, 17.248535%, 12.159729%)" fill-opacity="1"><g transform="translate(139.422821, 80.07521)"><g><path d="M -0.078125 -19.394531 L 10.367188 -22.957031 L 9.179688 -26.449219 L -4.761719 -21.699219 L 2.359375 -0.804688 L 16.296875 -5.554688 L 15.109375 -9.046875 L 4.660156 -5.484375 L 2.878906 -10.710938 L 11.566406 -13.667969 L 10.386719 -17.132812 L 1.699219 -14.171875 Z M -0.078125 -19.394531 "/></g></g></g><g fill="rgb(21.569824%, 17.248535%, 12.159729%)" fill-opacity="1"><g transform="translate(161.92167, 72.895754)"><g><path d="M 13.941406 -1.855469 L 18.222656 -2.421875 L 11.019531 -11.136719 C 13.066406 -12.011719 15.554688 -13.902344 15.039062 -17.777344 C 14.1875 -24.15625 6.875 -23.183594 6.875 -23.183594 L -0.410156 -22.214844 L 0.078125 -18.558594 L 4.273438 -13.546875 L 0.804688 -13.085938 L 2.5 -0.332031 L 6.15625 -0.820312 L 4.945312 -9.945312 L 7.039062 -10.226562 Z M 8.554688 -14.148438 L 4.421875 -19.132812 L 7.359375 -19.523438 C 7.359375 -19.523438 11.019531 -20.011719 11.378906 -17.292969 C 11.667969 -15.136719 9.507812 -14.371094 8.554688 -14.148438 Z M 8.554688 -14.148438 "/></g></g></g><g fill="rgb(21.569824%, 17.248535%, 12.159729%)" fill-opacity="1"><g transform="translate(185.922573, 69.717101)"><g><path d="M 26.25 2.746094 L 28.550781 -19.238281 L 24.820312 -19.628906 L 15.03125 -3.375 L 8.480469 -21.339844 L 4.746094 -21.730469 L 2.445312 0.257812 L 6.117188 0.640625 L 7.554688 -13.128906 L 12.828125 1.34375 L 16.277344 1.703125 L 23.992188 -11.125 L 22.582031 2.363281 Z M 26.25 2.746094 "/></g></g></g><g fill="rgb(21.569824%, 17.248535%, 12.159729%)" fill-opacity="1"><g transform="translate(219.304304, 74.420788)"><g><path d="M 12.8125 1.746094 L 12.898438 4.476562 L 16.652344 5.78125 L 15.757812 -18.5625 L 0 0 L 3.753906 1.304688 L 5.484375 -0.800781 Z M 7.660156 -3.414062 L 12.707031 -9.773438 L 12.726562 -1.65625 Z M 7.660156 -3.414062 "/></g></g></g><g fill="rgb(21.569824%, 17.248535%, 12.159729%)" fill-opacity="1"><g transform="translate(240.632656, 82.062902)"><g><path d="M 17.875 10.78125 L 29.277344 -8.121094 L 26.144531 -10.007812 L 18.035156 3.4375 L 16.722656 -15.691406 L 13.535156 -17.613281 L 2.132812 1.285156 L 5.292969 3.191406 L 13.402344 -10.253906 L 14.691406 8.859375 Z M 17.875 10.78125 "/></g></g></g><g fill="rgb(21.569824%, 17.248535%, 12.159729%)" fill-opacity="1"><g transform="translate(264.544974, 97.825625)"><g><path d="M 15.019531 -16.207031 L 10.472656 -10.84375 L 13.023438 -8.679688 L 17.570312 -14.042969 Z M 15.019531 -16.207031 "/></g></g></g><g fill="rgb(21.569824%, 17.248535%, 12.159729%)" fill-opacity="1"><g transform="translate(272.72106, 104.715508)"><g><path d="M 5.515625 6.617188 C 7.898438 9.269531 11.824219 10.195312 14.964844 7.371094 C 16.914062 5.621094 17.714844 3.207031 16.953125 0.757812 C 16.4375 -0.902344 15.40625 -2.050781 15.300781 -2.167969 C 14.207031 -3.390625 13.878906 -5.214844 15.242188 -6.4375 C 16.765625 -7.804688 18.507812 -7.378906 19.667969 -6.085938 C 20.78125 -4.84375 21.121094 -3.238281 19.800781 -1.972656 L 22.246094 0.75 C 24.996094 -1.804688 24.960938 -5.714844 22.410156 -8.550781 C 20.03125 -11.203125 15.898438 -11.984375 12.777344 -9.183594 C 10.828125 -7.433594 10.238281 -5.164062 10.976562 -2.738281 C 11.511719 -1.054688 12.523438 0.0703125 12.648438 0.210938 C 13.59375 1.355469 13.90625 3.40625 12.523438 4.648438 C 11.230469 5.808594 9.398438 5.417969 8.261719 4.152344 C 7.167969 2.929688 6.835938 1.195312 8.15625 -0.0742188 L 5.691406 -2.820312 C 2.65625 -0.0117188 3.039062 3.714844 5.515625 6.617188 Z M 5.515625 6.617188 "/></g></g></g><g fill="rgb(21.569824%, 17.248535%, 12.159729%)" fill-opacity="1"><g transform="translate(295.94997, 135.33741)"><g><path d="M 8.0625 10.5 C 6.492188 6.75 7.9375 2.621094 12.300781 0.789062 C 16.402344 -0.929688 20.441406 0.386719 22.195312 4.574219 C 22.976562 6.433594 22.941406 8.464844 22.230469 10.199219 L 25.617188 11.585938 C 26.710938 8.972656 26.78125 5.964844 25.597656 3.144531 C 23.097656 -2.816406 16.984375 -5.246094 10.847656 -2.671875 C 4.453125 0.0117188 2.308594 6.316406 4.660156 11.929688 C 5.84375 14.75 8.039062 16.804688 10.640625 17.867188 L 12.054688 14.46875 C 10.320312 13.761719 8.84375 12.363281 8.0625 10.5 Z M 8.0625 10.5 "/></g></g></g><g fill="rgb(21.569824%, 17.248535%, 12.159729%)" fill-opacity="1"><g transform="translate(305.684665, 160.415374)"><g><path d="M 4.957031 11.945312 L 2.640625 13.398438 L 3.40625 17.296875 L 23.976562 4.246094 L 0 0 L 0.769531 3.898438 L 3.457031 4.332031 Z M 6.8125 4.894531 L 14.851562 6.042969 L 7.847656 10.152344 Z M 6.8125 4.894531 "/></g></g></g><g fill="rgb(21.569824%, 17.248535%, 12.159729%)" fill-opacity="1"><g transform="translate(309.638453, 182.811653)"><g><path d="M 18.421875 6.074219 L 18.484375 17.113281 L 22.171875 17.089844 L 22.089844 2.363281 L 0.015625 2.492188 L 0.0351562 6.179688 L 9.242188 6.128906 L 9.296875 15.304688 L 12.953125 15.28125 L 12.902344 6.105469 Z M 18.421875 6.074219 "/></g></g></g><g fill="rgb(21.569824%, 17.248535%, 12.159729%)" fill-opacity="1"><g transform="translate(309.295412, 206.193904)"><g><path d="M 16.917969 9.484375 L 14.871094 20.328125 L 18.5 21.011719 L 21.230469 6.542969 L -0.460938 2.449219 L -3.191406 16.917969 L 0.433594 17.605469 L 2.480469 6.757812 L 7.902344 7.78125 L 6.199219 16.796875 L 9.796875 17.476562 L 11.496094 8.460938 Z M 16.917969 9.484375 "/></g></g></g><path fill="rgb(100%, 65.098572%, 34.509277%)" d="M 79.042969 253.875 L 81.457031 261.476562 C 81.515625 261.652344 81.667969 261.746094 81.84375 261.746094 L 90.378906 261.691406 C 90.765625 261.691406 90.917969 262.171875 90.609375 262.40625 L 83.65625 267.375 C 83.523438 267.472656 83.464844 267.664062 83.523438 267.820312 L 86.226562 275.921875 C 86.339844 276.289062 85.9375 276.601562 85.628906 276.367188 L 78.828125 271.398438 C 78.617188 271.242188 78.367188 271.242188 78.152344 271.398438 L 71.375 276.386719 C 71.066406 276.621094 70.640625 276.308594 70.777344 275.941406 L 73.480469 267.839844 C 73.539062 267.683594 73.480469 267.492188 73.347656 267.394531 L 66.394531 262.425781 C 66.085938 262.191406 66.238281 261.707031 66.625 261.707031 L 75.160156 261.765625 C 75.335938 261.765625 75.488281 261.652344 75.546875 261.496094 L 77.941406 253.875 C 78.132812 253.316406 78.867188 253.316406 79.042969 253.875 Z M 79.042969 253.875 " fill-opacity="1" fill-rule="nonzero"/><path fill="rgb(100%, 65.098572%, 34.509277%)" d="M 303.445312 253.875 L 305.859375 261.476562 C 305.917969 261.652344 306.070312 261.746094 306.246094 261.746094 L 314.78125 261.691406 C 315.164062 261.691406 315.320312 262.171875 315.011719 262.40625 L 308.058594 267.375 C 307.925781 267.472656 307.867188 267.664062 307.925781 267.820312 L 310.628906 275.921875 C 310.742188 276.289062 310.339844 276.601562 310.027344 276.367188 L 303.230469 271.398438 C 303.019531 271.242188 302.769531 271.242188 302.554688 271.398438 L 295.777344 276.386719 C 295.46875 276.621094 295.042969 276.308594 295.179688 275.941406 L 297.882812 267.839844 C 297.941406 267.683594 297.882812 267.492188 297.746094 267.394531 L 290.796875 262.425781 C 290.488281 262.191406 290.640625 261.707031 291.027344 261.707031 L 299.5625 261.765625 C 299.738281 261.765625 299.890625 261.652344 299.949219 261.496094 L 302.34375 253.875 C 302.535156 253.316406 303.269531 253.316406 303.445312 253.875 Z M 303.445312 253.875 " fill-opacity="1" fill-rule="nonzero"/><path fill="rgb(29.40979%, 23.529053%, 16.468811%)" d="M 184.296875 102.078125 C 136.660156 102.078125 98.046875 139.683594 98.046875 186.078125 C 98.046875 232.46875 136.660156 270.078125 184.296875 270.078125 C 231.929688 270.078125 270.546875 232.46875 270.546875 186.078125 C 270.546875 139.683594 231.929688 102.078125 184.296875 102.078125 " fill-opacity="1" fill-rule="nonzero"/><path fill="rgb(100%, 96.469116%, 86.669922%)" d="M 201.0625 226.683594 C 201.128906 226.648438 201.21875 226.597656 201.339844 226.535156 C 201.457031 226.46875 201.601562 226.390625 201.769531 226.304688 C 201.933594 226.21875 202.125 226.125 202.324219 226.011719 C 202.527344 225.902344 202.746094 225.785156 202.980469 225.660156 C 203.039062 225.632812 203.097656 225.601562 203.15625 225.570312 C 203.21875 225.535156 203.277344 225.503906 203.335938 225.46875 C 203.457031 225.402344 203.582031 225.335938 203.707031 225.265625 C 203.832031 225.195312 203.960938 225.128906 204.089844 225.054688 C 204.21875 224.980469 204.347656 224.90625 204.476562 224.832031 C 204.605469 224.753906 204.734375 224.679688 204.867188 224.605469 L 204.96875 224.546875 L 205.066406 224.488281 L 205.257812 224.367188 C 205.386719 224.289062 205.519531 224.207031 205.648438 224.128906 C 205.777344 224.050781 205.902344 223.964844 206.027344 223.882812 C 206.089844 223.84375 206.152344 223.800781 206.214844 223.761719 C 206.277344 223.71875 206.339844 223.683594 206.398438 223.640625 C 206.519531 223.554688 206.636719 223.46875 206.753906 223.390625 C 206.816406 223.351562 206.871094 223.308594 206.929688 223.269531 C 206.984375 223.226562 207.039062 223.1875 207.097656 223.144531 C 207.207031 223.0625 207.3125 222.984375 207.421875 222.90625 C 207.523438 222.824219 207.621094 222.742188 207.71875 222.667969 C 207.765625 222.628906 207.8125 222.589844 207.859375 222.554688 C 207.902344 222.515625 207.949219 222.476562 207.992188 222.441406 C 208.078125 222.367188 208.160156 222.296875 208.238281 222.226562 C 208.316406 222.15625 208.386719 222.085938 208.457031 222.023438 C 208.523438 221.960938 208.582031 221.898438 208.640625 221.84375 C 208.699219 221.785156 208.75 221.730469 208.796875 221.679688 C 208.886719 221.582031 208.953125 221.503906 209 221.445312 L 209.050781 221.382812 L 209.066406 221.359375 C 209.066406 221.359375 209.054688 221.394531 209.023438 221.460938 C 209.003906 221.492188 208.984375 221.53125 208.957031 221.578125 L 208.914062 221.652344 L 208.863281 221.734375 C 208.824219 221.789062 208.785156 221.855469 208.734375 221.921875 C 208.6875 221.988281 208.636719 222.0625 208.578125 222.136719 C 208.519531 222.207031 208.453125 222.289062 208.386719 222.371094 C 208.355469 222.414062 208.316406 222.449219 208.277344 222.492188 C 208.242188 222.535156 208.203125 222.574219 208.164062 222.621094 C 208.125 222.664062 208.082031 222.707031 208.042969 222.75 C 208 222.792969 207.953125 222.835938 207.910156 222.882812 C 207.820312 222.96875 207.726562 223.058594 207.625 223.152344 C 207.527344 223.238281 207.421875 223.332031 207.316406 223.421875 C 207.265625 223.46875 207.210938 223.515625 207.15625 223.5625 C 207.097656 223.605469 207.039062 223.652344 206.984375 223.695312 C 206.871094 223.785156 206.75 223.875 206.632812 223.96875 C 206.511719 224.058594 206.386719 224.140625 206.261719 224.230469 C 206.199219 224.273438 206.132812 224.316406 206.070312 224.359375 C 206.007812 224.402344 205.945312 224.449219 205.878906 224.488281 C 205.746094 224.570312 205.613281 224.652344 205.480469 224.734375 L 205.285156 224.855469 L 205.082031 224.972656 C 204.949219 225.050781 204.8125 225.121094 204.679688 225.195312 C 204.546875 225.269531 204.414062 225.34375 204.28125 225.410156 C 204.144531 225.476562 204.011719 225.539062 203.882812 225.601562 C 203.75 225.664062 203.625 225.726562 203.496094 225.789062 C 203.433594 225.816406 203.371094 225.847656 203.308594 225.875 C 203.246094 225.902344 203.183594 225.929688 203.121094 225.953125 C 202.878906 226.058594 202.644531 226.152344 202.429688 226.238281 C 202.214844 226.328125 202.011719 226.394531 201.835938 226.457031 C 201.65625 226.519531 201.5 226.570312 201.375 226.613281 C 201.246094 226.65625 201.144531 226.6875 201.074219 226.707031 C 201.003906 226.730469 200.96875 226.738281 200.96875 226.738281 C 200.96875 226.738281 201 226.71875 201.0625 226.683594 Z M 208.769531 222.882812 C 209.0625 222.589844 209.339844 222.28125 209.601562 221.957031 C 209.71875 221.8125 209.800781 221.636719 209.832031 221.449219 C 209.863281 221.28125 209.855469 221.085938 209.777344 220.871094 C 209.707031 220.675781 209.585938 220.5 209.433594 220.355469 C 206.144531 217.195312 200.25 217.632812 195.96875 221.453125 C 192.316406 224.710938 190.976562 229.421875 192.378906 232.992188 C 194.773438 230.4375 197.96875 228.964844 201.070312 227.535156 C 203.953125 226.207031 206.714844 224.933594 208.769531 222.882812 " fill-opacity="1" fill-rule="nonzero"/><path fill="rgb(100%, 96.469116%, 86.669922%)" d="M 223.277344 225.261719 C 223.230469 225.824219 223.152344 226.378906 223.027344 226.917969 C 222.992188 227.054688 222.964844 227.1875 222.929688 227.320312 C 222.910156 227.386719 222.890625 227.453125 222.875 227.515625 L 222.84375 227.617188 L 222.816406 227.710938 C 222.773438 227.84375 222.734375 227.96875 222.691406 228.097656 C 222.644531 228.222656 222.601562 228.347656 222.550781 228.46875 C 222.363281 228.957031 222.144531 229.414062 221.914062 229.835938 C 221.6875 230.257812 221.441406 230.636719 221.203125 230.976562 C 221.082031 231.144531 220.964844 231.304688 220.847656 231.453125 C 220.789062 231.527344 220.734375 231.601562 220.675781 231.667969 C 220.617188 231.738281 220.5625 231.800781 220.507812 231.867188 C 220.402344 231.996094 220.296875 232.113281 220.195312 232.21875 C 220.101562 232.328125 220.007812 232.421875 219.921875 232.507812 C 219.753906 232.679688 219.613281 232.804688 219.523438 232.894531 C 219.425781 232.980469 219.375 233.027344 219.375 233.027344 C 219.375 233.027344 219.414062 232.96875 219.488281 232.863281 C 219.523438 232.8125 219.570312 232.746094 219.621094 232.671875 C 219.648438 232.632812 219.679688 232.589844 219.707031 232.546875 C 219.734375 232.503906 219.769531 232.457031 219.800781 232.40625 C 219.867188 232.308594 219.941406 232.203125 220.019531 232.078125 C 220.09375 231.960938 220.183594 231.832031 220.269531 231.691406 C 220.3125 231.621094 220.355469 231.546875 220.402344 231.472656 C 220.449219 231.398438 220.492188 231.320312 220.539062 231.242188 C 220.582031 231.160156 220.632812 231.082031 220.679688 230.996094 C 220.726562 230.914062 220.773438 230.828125 220.824219 230.738281 C 220.871094 230.652344 220.917969 230.558594 220.964844 230.464844 C 221.015625 230.375 221.0625 230.28125 221.109375 230.183594 C 221.15625 230.082031 221.207031 229.988281 221.253906 229.886719 C 221.300781 229.785156 221.347656 229.683594 221.394531 229.578125 C 221.578125 229.15625 221.753906 228.707031 221.90625 228.238281 C 221.945312 228.121094 221.976562 228 222.015625 227.878906 C 222.054688 227.757812 222.085938 227.636719 222.117188 227.511719 C 222.183594 227.265625 222.238281 227.015625 222.292969 226.761719 C 222.394531 226.253906 222.464844 225.730469 222.503906 225.203125 C 222.546875 224.679688 222.550781 224.152344 222.527344 223.632812 C 222.515625 223.371094 222.496094 223.113281 222.472656 222.863281 C 222.457031 222.734375 222.445312 222.609375 222.429688 222.484375 C 222.414062 222.355469 222.394531 222.234375 222.375 222.109375 C 222.300781 221.617188 222.207031 221.144531 222.09375 220.699219 C 221.984375 220.253906 221.863281 219.835938 221.734375 219.453125 C 221.609375 219.074219 221.480469 218.726562 221.359375 218.417969 C 221.238281 218.113281 221.125 217.847656 221.023438 217.632812 C 220.925781 217.417969 220.84375 217.246094 220.789062 217.132812 C 220.730469 217.019531 220.695312 216.957031 220.695312 216.957031 L 220.730469 216.996094 C 220.75 217.023438 220.785156 217.058594 220.824219 217.109375 C 220.902344 217.210938 221.023438 217.359375 221.160156 217.558594 C 221.296875 217.753906 221.457031 218 221.628906 218.289062 C 221.796875 218.578125 221.976562 218.914062 222.152344 219.292969 C 222.238281 219.480469 222.324219 219.679688 222.410156 219.886719 C 222.492188 220.09375 222.574219 220.3125 222.652344 220.535156 C 222.804688 220.988281 222.945312 221.476562 223.050781 221.988281 C 223.105469 222.242188 223.152344 222.507812 223.191406 222.773438 C 223.210938 222.90625 223.226562 223.042969 223.242188 223.175781 C 223.253906 223.3125 223.269531 223.453125 223.277344 223.589844 C 223.28125 223.65625 223.285156 223.726562 223.292969 223.796875 C 223.292969 223.863281 223.296875 223.933594 223.300781 224.003906 C 223.308594 224.140625 223.304688 224.28125 223.308594 224.421875 C 223.304688 224.703125 223.296875 224.984375 223.277344 225.261719 Z M 217.222656 213.519531 C 218.144531 217.289062 217.199219 221.0625 216.28125 224.726562 C 215.492188 227.867188 214.746094 230.859375 215.058594 233.847656 C 215.082031 234.066406 215.167969 234.273438 215.3125 234.4375 C 215.535156 234.679688 215.929688 234.878906 216.636719 234.785156 C 221.113281 234.148438 224.425781 229.304688 224.136719 223.605469 C 223.882812 218.636719 220.964844 214.585938 217.222656 213.519531 " fill-opacity="1" fill-rule="nonzero"/><g clip-path="url(#id1)"><path fill="rgb(100%, 96.469116%, 86.669922%)" d="M 256.535156 189.421875 C 256.496094 189.570312 256.457031 189.714844 256.414062 189.859375 L 256.269531 190.347656 C 256.175781 190.605469 256.085938 190.867188 255.992188 191.128906 L 255.855469 191.523438 C 255.832031 191.585938 255.800781 191.660156 255.773438 191.730469 L 255.683594 191.949219 L 255.324219 192.804688 C 255.269531 192.953125 255.199219 193.082031 255.132812 193.21875 L 254.933594 193.621094 C 254.683594 194.164062 254.371094 194.679688 254.078125 195.199219 L 253.964844 195.394531 L 253.839844 195.582031 L 253.597656 195.957031 L 253.351562 196.328125 L 253.226562 196.515625 L 253.09375 196.695312 L 252.5625 197.410156 C 252.476562 197.53125 252.382812 197.648438 252.289062 197.757812 L 252.003906 198.097656 C 251.636719 198.558594 251.226562 198.980469 250.828125 199.410156 C 250.628906 199.625 250.410156 199.816406 250.207031 200.023438 C 249.992188 200.21875 249.792969 200.429688 249.570312 200.613281 C 247.847656 202.148438 245.992188 203.429688 244.109375 204.464844 C 242.226562 205.511719 240.335938 206.351562 238.515625 207.039062 C 236.691406 207.726562 234.941406 208.265625 233.3125 208.707031 C 231.683594 209.152344 230.179688 209.496094 228.839844 209.769531 C 227.503906 210.046875 226.332031 210.261719 225.367188 210.425781 C 224.886719 210.507812 224.457031 210.578125 224.078125 210.636719 C 223.703125 210.695312 223.386719 210.746094 223.125 210.785156 C 222.609375 210.863281 222.332031 210.902344 222.332031 210.902344 C 222.332031 210.902344 222.605469 210.839844 223.113281 210.71875 C 223.367188 210.660156 223.683594 210.585938 224.050781 210.492188 C 224.421875 210.402344 224.84375 210.300781 225.316406 210.175781 C 226.261719 209.9375 227.40625 209.625 228.707031 209.242188 C 230.011719 208.859375 231.46875 208.394531 233.035156 207.828125 C 234.597656 207.257812 236.269531 206.585938 237.980469 205.777344 C 239.691406 204.964844 241.441406 204.007812 243.132812 202.871094 C 244.832031 201.746094 246.453125 200.40625 247.898438 198.890625 C 248.085938 198.707031 248.25 198.503906 248.425781 198.308594 C 248.597656 198.109375 248.78125 197.921875 248.9375 197.710938 C 249.261719 197.300781 249.597656 196.894531 249.886719 196.460938 L 250.113281 196.140625 C 250.191406 196.035156 250.265625 195.925781 250.332031 195.8125 L 250.742188 195.148438 L 250.847656 194.980469 L 251.128906 194.464844 L 251.3125 194.125 L 251.40625 193.953125 L 251.492188 193.773438 C 251.707031 193.304688 251.941406 192.839844 252.117188 192.351562 L 252.257812 191.992188 C 252.308594 191.871094 252.359375 191.75 252.394531 191.632812 L 252.621094 190.925781 L 252.679688 190.75 C 252.699219 190.691406 252.71875 190.636719 252.734375 190.566406 L 252.839844 190.164062 C 252.910156 189.894531 252.980469 189.625 253.050781 189.359375 C 253.066406 189.304688 253.039062 189.402344 253.042969 189.382812 L 253.046875 189.359375 L 253.054688 189.316406 L 253.074219 189.222656 L 253.113281 189.039062 C 253.144531 188.917969 253.160156 188.792969 253.183594 188.671875 C 253.230469 188.425781 253.261719 188.183594 253.292969 187.9375 C 253.414062 186.964844 253.4375 186 253.335938 185.09375 C 253.289062 184.640625 253.207031 184.203125 253.09375 183.792969 C 252.984375 183.378906 252.851562 182.984375 252.683594 182.632812 C 252.34375 181.921875 251.902344 181.339844 251.375 180.917969 C 251.117188 180.699219 250.835938 180.519531 250.53125 180.371094 C 250.457031 180.332031 250.382812 180.292969 250.300781 180.261719 L 250.066406 180.164062 C 249.902344 180.113281 249.746094 180.042969 249.574219 180.007812 C 249.488281 179.984375 249.40625 179.957031 249.324219 179.9375 C 249.234375 179.917969 249.148438 179.902344 249.0625 179.886719 L 248.933594 179.855469 L 248.820312 179.84375 C 248.742188 179.832031 248.667969 179.820312 248.59375 179.808594 C 248.566406 179.804688 248.496094 179.796875 248.441406 179.792969 L 248.265625 179.773438 L 247.964844 179.746094 C 247.988281 179.75 247.882812 179.738281 248.011719 179.753906 L 247.996094 179.753906 C 247.800781 179.746094 247.609375 179.742188 247.421875 179.734375 C 247.234375 179.722656 247.039062 179.742188 246.851562 179.742188 C 246.664062 179.746094 246.476562 179.75 246.289062 179.769531 C 246.101562 179.785156 245.914062 179.800781 245.730469 179.8125 C 245.546875 179.835938 245.363281 179.859375 245.179688 179.882812 C 245 179.902344 244.820312 179.9375 244.640625 179.964844 C 244.460938 180 244.285156 180.023438 244.109375 180.058594 C 243.761719 180.136719 243.421875 180.199219 243.085938 180.289062 C 242.917969 180.332031 242.753906 180.371094 242.589844 180.414062 C 242.429688 180.457031 242.269531 180.503906 242.109375 180.550781 C 241.792969 180.636719 241.484375 180.738281 241.1875 180.832031 C 240 181.21875 238.964844 181.632812 238.117188 181.992188 C 237.695312 182.167969 237.316406 182.34375 236.988281 182.488281 C 236.667969 182.636719 236.394531 182.765625 236.171875 182.871094 C 235.699219 183.09375 235.445312 183.214844 235.445312 183.214844 C 233.972656 183.917969 232.210938 183.296875 231.507812 181.824219 C 230.804688 180.351562 231.425781 178.585938 232.898438 177.878906 C 232.96875 177.84375 233.042969 177.8125 233.117188 177.785156 L 233.125 177.785156 C 233.125 177.785156 233.382812 177.683594 233.875 177.5 C 234.136719 177.402344 234.457031 177.28125 234.835938 177.140625 C 235.214844 177.011719 235.644531 176.855469 236.140625 176.695312 C 237.121094 176.371094 238.328125 176 239.761719 175.660156 C 240.125 175.578125 240.492188 175.492188 240.882812 175.417969 C 241.074219 175.382812 241.269531 175.34375 241.472656 175.304688 C 241.671875 175.269531 241.875 175.238281 242.082031 175.203125 C 242.492188 175.128906 242.929688 175.085938 243.367188 175.027344 C 243.589844 175 243.816406 174.984375 244.042969 174.964844 C 244.273438 174.945312 244.5 174.925781 244.738281 174.917969 C 244.976562 174.910156 245.214844 174.898438 245.453125 174.886719 C 245.695312 174.890625 245.941406 174.890625 246.191406 174.890625 C 246.4375 174.886719 246.691406 174.902344 246.945312 174.917969 C 247.199219 174.9375 247.453125 174.941406 247.714844 174.976562 C 247.976562 175.007812 248.238281 175.035156 248.503906 175.066406 L 248.53125 175.070312 C 248.671875 175.089844 248.582031 175.078125 248.617188 175.082031 L 248.917969 175.136719 L 249.085938 175.167969 C 249.148438 175.179688 249.191406 175.183594 249.277344 175.203125 C 249.429688 175.238281 249.585938 175.273438 249.742188 175.308594 L 249.972656 175.363281 L 250.1875 175.425781 C 250.328125 175.472656 250.46875 175.515625 250.613281 175.558594 C 250.757812 175.605469 250.898438 175.660156 251.042969 175.710938 C 251.332031 175.8125 251.617188 175.953125 251.902344 176.078125 C 252.042969 176.148438 252.183594 176.226562 252.324219 176.300781 C 252.464844 176.375 252.601562 176.460938 252.738281 176.546875 C 253.292969 176.882812 253.820312 177.296875 254.292969 177.769531 C 254.769531 178.238281 255.199219 178.765625 255.550781 179.335938 C 255.90625 179.902344 256.195312 180.503906 256.421875 181.117188 C 256.652344 181.734375 256.804688 182.359375 256.917969 182.988281 C 257.027344 183.617188 257.085938 184.242188 257.101562 184.867188 C 257.132812 186.113281 256.992188 187.339844 256.746094 188.53125 C 256.679688 188.832031 256.613281 189.128906 256.535156 189.421875 Z M 215.0625 215.734375 C 215.058594 215.621094 215.058594 215.511719 215.050781 215.40625 C 215.046875 215.304688 215.039062 215.207031 215.03125 215.113281 C 215.027344 215.019531 215.011719 214.933594 215.007812 214.851562 C 215 214.773438 214.988281 214.699219 214.976562 214.632812 C 214.960938 214.5 214.9375 214.394531 214.921875 214.324219 C 214.917969 214.289062 214.910156 214.261719 214.90625 214.246094 L 214.898438 214.21875 C 214.898438 214.21875 214.917969 214.25 214.949219 214.316406 C 214.964844 214.351562 214.980469 214.394531 215 214.441406 L 215.027344 214.519531 L 215.058594 214.613281 C 215.082031 214.675781 215.105469 214.75 215.128906 214.828125 C 215.148438 214.90625 215.175781 214.992188 215.195312 215.085938 C 215.214844 215.179688 215.234375 215.277344 215.257812 215.382812 C 215.269531 215.433594 215.277344 215.488281 215.285156 215.542969 C 215.292969 215.601562 215.304688 215.65625 215.3125 215.714844 C 215.320312 215.769531 215.328125 215.832031 215.335938 215.890625 C 215.34375 215.953125 215.351562 216.011719 215.355469 216.074219 C 215.367188 216.203125 215.378906 216.332031 215.390625 216.464844 C 215.394531 216.597656 215.402344 216.738281 215.40625 216.875 C 215.410156 216.945312 215.414062 217.019531 215.414062 217.089844 C 215.410156 217.164062 215.410156 217.234375 215.410156 217.308594 C 215.410156 217.453125 215.40625 217.601562 215.402344 217.753906 C 215.394531 217.902344 215.382812 218.054688 215.371094 218.207031 C 215.367188 218.285156 215.359375 218.359375 215.355469 218.4375 C 215.347656 218.515625 215.347656 218.589844 215.335938 218.667969 C 215.316406 218.820312 215.296875 218.976562 215.277344 219.128906 L 215.246094 219.359375 L 215.234375 219.476562 L 215.214844 219.589844 C 215.1875 219.742188 215.160156 219.894531 215.136719 220.046875 C 215.105469 220.195312 215.082031 220.34375 215.050781 220.492188 C 215.015625 220.636719 214.984375 220.78125 214.953125 220.921875 C 214.917969 221.0625 214.886719 221.203125 214.855469 221.339844 C 214.835938 221.40625 214.820312 221.476562 214.804688 221.539062 C 214.785156 221.605469 214.765625 221.671875 214.75 221.734375 C 214.675781 221.992188 214.605469 222.230469 214.535156 222.453125 C 214.472656 222.675781 214.398438 222.875 214.335938 223.054688 C 214.269531 223.230469 214.210938 223.386719 214.164062 223.511719 C 214.117188 223.640625 214.078125 223.738281 214.050781 223.804688 C 214.023438 223.871094 214.007812 223.90625 214.007812 223.90625 C 214.007812 223.90625 214.015625 223.871094 214.027344 223.796875 C 214.039062 223.726562 214.058594 223.621094 214.082031 223.488281 C 214.105469 223.355469 214.136719 223.195312 214.175781 223.011719 C 214.210938 222.824219 214.257812 222.621094 214.292969 222.394531 C 214.335938 222.164062 214.382812 221.921875 214.433594 221.664062 C 214.445312 221.597656 214.460938 221.53125 214.472656 221.464844 C 214.484375 221.398438 214.496094 221.332031 214.503906 221.261719 C 214.527344 221.128906 214.554688 220.988281 214.578125 220.847656 C 214.605469 220.707031 214.628906 220.5625 214.65625 220.417969 C 214.679688 220.273438 214.699219 220.125 214.722656 219.976562 C 214.746094 219.828125 214.765625 219.675781 214.792969 219.527344 L 214.8125 219.414062 L 214.824219 219.300781 L 214.851562 219.074219 C 214.871094 218.921875 214.890625 218.773438 214.910156 218.621094 C 214.929688 218.472656 214.941406 218.320312 214.957031 218.171875 C 214.964844 218.097656 214.972656 218.023438 214.980469 217.949219 C 214.984375 217.875 214.996094 217.800781 215 217.726562 C 215.011719 217.582031 215.019531 217.4375 215.027344 217.292969 C 215.035156 217.222656 215.039062 217.152344 215.046875 217.082031 C 215.046875 217.011719 215.050781 216.945312 215.054688 216.875 C 215.058594 216.738281 215.0625 216.601562 215.066406 216.472656 C 215.070312 216.34375 215.066406 216.214844 215.070312 216.089844 C 215.070312 216.03125 215.070312 215.96875 215.070312 215.910156 C 215.066406 215.851562 215.066406 215.792969 215.0625 215.734375 Z M 216.050781 235.886719 C 213.984375 235.992188 212.03125 235.332031 210.378906 234.109375 C 210.609375 233.828125 210.820312 233.535156 211.027344 233.242188 L 211.035156 233.242188 L 211.195312 233.359375 L 211.203125 233.355469 C 211.914062 233.871094 212.683594 234.273438 213.496094 234.527344 C 213.011719 231.058594 213.863281 227.644531 214.695312 224.328125 C 215.464844 221.246094 216.207031 218.292969 215.894531 215.40625 C 215.851562 214.996094 215.789062 214.585938 215.695312 214.175781 C 215.660156 213.992188 215.574219 213.820312 215.449219 213.679688 C 215.335938 213.550781 215.179688 213.433594 214.960938 213.359375 C 214.765625 213.292969 214.554688 213.277344 214.347656 213.304688 C 211.863281 213.625 209.730469 215.242188 208.363281 217.582031 C 208.023438 217.410156 207.667969 217.257812 207.308594 217.128906 C 208.976562 214.285156 211.695312 212.371094 214.84375 212.210938 C 220.300781 211.933594 224.996094 217.007812 225.332031 223.546875 C 225.664062 230.082031 221.507812 235.609375 216.050781 235.886719 Z M 208.34375 235.339844 C 203.464844 239.695312 196.558594 239.921875 192.921875 235.839844 C 189.285156 231.757812 190.292969 224.914062 195.175781 220.558594 C 200.054688 216.203125 206.960938 215.980469 210.597656 220.0625 C 214.234375 224.144531 213.226562 230.984375 208.34375 235.339844 Z M 139.824219 174.371094 C 139.824219 170.460938 160.296875 167.292969 185.546875 167.292969 C 210.796875 167.292969 231.269531 170.460938 231.269531 174.371094 C 231.269531 178.277344 210.796875 181.445312 185.546875 181.445312 C 160.296875 181.445312 139.824219 178.277344 139.824219 174.371094 Z M 184.753906 225.429688 C 184.238281 225.386719 183.476562 225.355469 182.515625 225.234375 C 181.550781 225.140625 180.378906 224.988281 179.046875 224.765625 C 177.714844 224.535156 176.207031 224.257812 174.589844 223.832031 C 173.777344 223.636719 172.945312 223.386719 172.074219 223.144531 C 171.214844 222.871094 170.324219 222.589844 169.421875 222.253906 C 167.617188 221.59375 165.742188 220.800781 163.867188 219.835938 C 163.402344 219.589844 162.925781 219.351562 162.460938 219.085938 C 161.996094 218.816406 161.523438 218.554688 161.0625 218.273438 C 160.601562 217.984375 160.128906 217.707031 159.671875 217.402344 C 159.21875 217.089844 158.75 216.796875 158.304688 216.464844 C 156.492188 215.179688 154.757812 213.730469 153.132812 212.160156 C 151.519531 210.578125 150.027344 208.871094 148.699219 207.09375 C 148.039062 206.199219 147.402344 205.296875 146.828125 204.371094 C 146.53125 203.917969 146.265625 203.449219 145.984375 202.992188 C 145.722656 202.523438 145.453125 202.066406 145.207031 201.597656 C 144.703125 200.667969 144.253906 199.734375 143.835938 198.8125 C 143.425781 197.886719 143.035156 196.972656 142.703125 196.070312 C 142.023438 194.265625 141.503906 192.519531 141.101562 190.890625 C 140.894531 190.082031 140.722656 189.296875 140.578125 188.550781 C 140.4375 187.800781 140.316406 187.085938 140.21875 186.414062 C 140.015625 185.074219 139.917969 183.894531 139.855469 182.925781 C 139.792969 181.953125 139.792969 181.191406 139.796875 180.671875 C 139.800781 180.152344 139.824219 179.875 139.824219 179.875 C 139.824219 179.875 139.851562 180.152344 139.921875 180.664062 C 139.984375 181.175781 140.109375 181.925781 140.28125 182.871094 C 140.453125 183.820312 140.703125 184.960938 141.027344 186.253906 C 141.351562 187.550781 141.773438 188.996094 142.285156 190.546875 C 142.546875 191.324219 142.832031 192.125 143.15625 192.941406 C 143.476562 193.761719 143.824219 194.601562 144.203125 195.457031 C 144.582031 196.308594 144.992188 197.171875 145.4375 198.042969 C 145.890625 198.90625 146.351562 199.792969 146.875 200.660156 C 147.894531 202.414062 149.074219 204.140625 150.363281 205.824219 C 151.671875 207.492188 153.097656 209.113281 154.640625 210.613281 C 156.179688 212.113281 157.832031 213.5 159.535156 214.765625 C 160.386719 215.394531 161.257812 215.988281 162.128906 216.558594 C 162.566406 216.839844 163.011719 217.105469 163.449219 217.378906 C 163.890625 217.636719 164.332031 217.890625 164.769531 218.148438 C 166.539062 219.140625 168.308594 220 170.023438 220.738281 C 171.738281 221.484375 173.390625 222.117188 174.941406 222.640625 C 175.332031 222.769531 175.707031 222.90625 176.085938 223.019531 C 176.460938 223.132812 176.828125 223.246094 177.183594 223.359375 C 177.363281 223.414062 177.539062 223.46875 177.710938 223.527344 C 177.886719 223.578125 178.058594 223.625 178.230469 223.671875 C 178.574219 223.769531 178.902344 223.863281 179.226562 223.957031 C 180.515625 224.300781 181.644531 224.601562 182.585938 224.8125 C 183.523438 225.039062 184.265625 225.195312 184.769531 225.304688 C 185.277344 225.421875 185.546875 225.480469 185.546875 225.480469 C 185.546875 225.480469 185.269531 225.464844 184.753906 225.429688 Z M 194.121094 156.496094 C 194.390625 155.453125 194.914062 154.304688 195.691406 153.234375 C 196.46875 152.15625 197.472656 151.136719 198.613281 150.210938 C 199.761719 149.289062 201.039062 148.453125 202.390625 147.695312 C 203.0625 147.316406 203.761719 146.957031 204.464844 146.613281 C 205.167969 146.265625 205.882812 145.933594 206.601562 145.621094 C 208.035156 144.980469 209.492188 144.382812 210.84375 143.785156 L 211.097656 143.675781 L 211.175781 143.636719 L 211.179688 143.636719 L 211.3125 143.574219 L 211.84375 143.320312 C 211.929688 143.277344 212.03125 143.230469 212.101562 143.195312 L 212.320312 143.078125 L 212.757812 142.851562 C 213.355469 142.507812 213.960938 142.175781 214.5 141.785156 C 215.054688 141.410156 215.558594 141.003906 216.027344 140.585938 C 216.503906 140.167969 216.886719 139.710938 217.253906 139.261719 C 217.625 138.808594 217.882812 138.324219 218.117188 137.847656 C 218.34375 137.367188 218.492188 136.875 218.574219 136.378906 C 218.742188 135.390625 218.625 134.367188 218.292969 133.421875 C 217.980469 132.472656 217.484375 131.605469 216.964844 130.875 C 216.4375 130.136719 215.902344 129.515625 215.4375 129.015625 C 214.96875 128.523438 214.578125 128.132812 214.304688 127.875 C 214.03125 127.609375 213.890625 127.46875 213.890625 127.46875 C 213.890625 127.46875 214.082031 127.527344 214.445312 127.636719 C 214.628906 127.691406 214.859375 127.753906 215.113281 127.859375 C 215.371094 127.960938 215.675781 128.066406 216 128.222656 C 216.660156 128.515625 217.4375 128.941406 218.28125 129.546875 C 219.121094 130.160156 220.019531 130.984375 220.789062 132.136719 C 221.183594 132.703125 221.5 133.375 221.769531 134.109375 C 222.035156 134.84375 222.171875 135.667969 222.214844 136.523438 C 222.285156 138.242188 221.765625 140.0625 220.851562 141.605469 C 220.398438 142.378906 219.859375 143.113281 219.253906 143.761719 C 219.105469 143.9375 218.949219 144.089844 218.792969 144.246094 C 218.632812 144.402344 218.480469 144.570312 218.3125 144.714844 C 217.980469 145.003906 217.648438 145.300781 217.292969 145.5625 C 216.601562 146.113281 215.871094 146.59375 215.113281 147.042969 L 214.519531 147.371094 L 214.21875 147.535156 C 214.113281 147.589844 214.039062 147.625 213.945312 147.671875 L 213.414062 147.929688 L 213.285156 147.996094 L 213.097656 148.082031 L 212.8125 148.210938 C 211.285156 148.886719 209.808594 149.425781 208.375 149.960938 C 207.667969 150.230469 206.964844 150.492188 206.273438 150.753906 C 205.582031 151.019531 204.917969 151.289062 204.261719 151.546875 C 202.96875 152.089844 201.742188 152.628906 200.644531 153.222656 C 199.546875 153.8125 198.574219 154.441406 197.761719 155.109375 C 196.941406 155.773438 196.308594 156.496094 195.832031 157.21875 C 195.347656 157.9375 195.0625 158.667969 194.871094 159.300781 C 194.820312 159.460938 194.777344 159.613281 194.738281 159.757812 C 194.707031 159.902344 194.675781 160.039062 194.652344 160.164062 C 194.625 160.292969 194.601562 160.414062 194.578125 160.523438 C 194.5625 160.640625 194.550781 160.746094 194.539062 160.839844 C 194.488281 161.214844 194.460938 161.417969 194.460938 161.417969 C 194.460938 161.417969 194.390625 161.226562 194.261719 160.871094 C 194.230469 160.78125 194.195312 160.679688 194.15625 160.570312 C 194.128906 160.453125 194.097656 160.328125 194.066406 160.191406 C 194.035156 160.050781 194 159.898438 193.964844 159.738281 C 193.945312 159.574219 193.925781 159.402344 193.90625 159.21875 C 193.828125 158.480469 193.839844 157.542969 194.121094 156.496094 Z M 190.738281 103.023438 C 186.09375 103.023438 181.542969 103.410156 177.105469 104.136719 C 176.996094 105.191406 177.097656 106.277344 177.453125 107.339844 C 177.792969 108.386719 178.351562 109.402344 179.089844 110.34375 C 179.464844 110.808594 179.878906 111.257812 180.324219 111.691406 L 180.667969 112.011719 C 180.785156 112.113281 180.894531 112.203125 181.007812 112.296875 L 181.179688 112.445312 L 181.609375 112.78125 L 181.71875 112.867188 C 181.734375 112.878906 181.671875 112.824219 181.707031 112.855469 L 181.734375 112.871094 L 181.785156 112.910156 C 182.839844 113.671875 184 114.359375 185.253906 114.980469 C 185.878906 115.289062 186.53125 115.574219 187.199219 115.859375 C 187.867188 116.144531 188.546875 116.421875 189.246094 116.691406 C 190.644531 117.238281 192.097656 117.75 193.578125 118.34375 C 193.953125 118.496094 194.34375 118.648438 194.695312 118.796875 L 195.234375 119.019531 L 195.828125 119.289062 L 196.410156 119.550781 C 196.601562 119.640625 196.792969 119.742188 196.984375 119.839844 L 197.5625 120.132812 L 198.125 120.457031 C 199.625 121.335938 201.082031 122.386719 202.351562 123.757812 C 202.992188 124.429688 203.566406 125.207031 204.050781 126.050781 C 204.542969 126.890625 204.921875 127.835938 205.152344 128.824219 C 205.382812 129.8125 205.46875 130.855469 205.359375 131.863281 C 205.246094 132.875 204.972656 133.839844 204.59375 134.722656 C 204.21875 135.613281 203.707031 136.394531 203.171875 137.113281 L 202.75 137.632812 C 202.609375 137.804688 202.453125 137.957031 202.304688 138.117188 C 202.011719 138.445312 201.691406 138.71875 201.378906 139.011719 C 201.0625 139.289062 200.738281 139.550781 200.410156 139.804688 C 200.078125 140.039062 199.753906 140.296875 199.414062 140.507812 C 199.078125 140.722656 198.746094 140.945312 198.402344 141.128906 C 198.058594 141.320312 197.722656 141.515625 197.355469 141.6875 C 195.984375 142.375 194.628906 142.894531 193.351562 143.339844 C 190.792969 144.238281 188.4375 145.015625 186.34375 145.894531 C 184.25 146.761719 182.421875 147.714844 180.992188 148.789062 C 179.554688 149.859375 178.550781 151.074219 177.984375 152.234375 C 177.40625 153.390625 177.222656 154.457031 177.183594 155.167969 C 177.171875 155.257812 177.164062 155.34375 177.15625 155.425781 C 177.15625 155.503906 177.15625 155.582031 177.152344 155.652344 C 177.152344 155.792969 177.152344 155.910156 177.148438 156.007812 C 177.144531 156.199219 177.144531 156.296875 177.144531 156.296875 C 177.144531 156.296875 177.121094 156.199219 177.078125 156.015625 C 177.054688 155.921875 177.027344 155.808594 176.992188 155.671875 C 176.976562 155.601562 176.960938 155.527344 176.941406 155.449219 C 176.929688 155.367188 176.917969 155.28125 176.90625 155.1875 C 176.882812 155.003906 176.851562 154.789062 176.828125 154.558594 C 176.820312 154.328125 176.8125 154.070312 176.804688 153.796875 C 176.824219 153.523438 176.832031 153.21875 176.871094 152.902344 C 176.933594 152.589844 176.96875 152.246094 177.078125 151.898438 C 177.433594 150.488281 178.339844 148.867188 179.746094 147.402344 C 181.152344 145.933594 183.003906 144.601562 185.101562 143.394531 C 186.152344 142.785156 187.269531 142.214844 188.421875 141.648438 C 189.574219 141.078125 190.777344 140.542969 191.976562 139.976562 C 193.183594 139.410156 194.375 138.855469 195.46875 138.179688 C 196.523438 137.523438 197.597656 136.761719 198.460938 135.878906 C 199.320312 134.996094 200.039062 134.015625 200.421875 132.992188 C 200.804688 131.96875 200.875 130.945312 200.597656 129.941406 C 200.46875 129.4375 200.257812 128.9375 199.949219 128.453125 C 199.648438 127.96875 199.289062 127.488281 198.851562 127.039062 C 198.003906 126.125 196.898438 125.332031 195.699219 124.644531 L 195.253906 124.382812 L 194.785156 124.144531 C 194.628906 124.0625 194.476562 123.980469 194.316406 123.902344 L 193.835938 123.679688 L 193.363281 123.460938 L 192.828125 123.230469 C 192.464844 123.074219 192.132812 122.941406 191.785156 122.796875 C 190.382812 122.234375 188.9375 121.65625 187.484375 121.046875 C 186.761719 120.742188 186.03125 120.421875 185.308594 120.089844 C 184.585938 119.742188 183.867188 119.382812 183.160156 118.996094 C 181.746094 118.214844 180.367188 117.328125 179.125 116.28125 L 178.972656 116.15625 L 178.667969 115.882812 L 178.460938 115.699219 L 178.230469 115.480469 C 178.078125 115.332031 177.914062 115.183594 177.769531 115.035156 L 177.347656 114.589844 C 176.796875 113.988281 176.289062 113.347656 175.839844 112.671875 C 174.953125 111.3125 174.261719 109.824219 173.929688 108.265625 C 173.675781 107.097656 173.601562 105.902344 173.722656 104.761719 L 173.71875 104.761719 L 173.71875 104.757812 C 173.71875 104.757812 173.945312 95.234375 189.578125 92.101562 C 189.578125 92.101562 172.457031 90.308594 169.390625 105.785156 C 133.578125 115.226562 107.164062 147.859375 107.164062 186.671875 C 107.164062 201.507812 111.027344 215.433594 117.792969 227.515625 C 122.152344 222.328125 135.929688 217.976562 154.59375 215.570312 C 138.90625 218.78125 128.933594 223.59375 128.933594 228.96875 C 128.933594 238.632812 161.113281 246.464844 200.8125 246.464844 C 212.953125 246.464844 224.390625 245.734375 234.421875 244.4375 C 221.925781 246.996094 205.804688 248.535156 188.203125 248.535156 C 161.839844 248.535156 138.796875 245.078125 126.289062 239.929688 C 141.617188 258.492188 164.796875 270.324219 190.738281 270.324219 C 236.894531 270.324219 274.308594 232.871094 274.308594 186.671875 C 274.308594 140.476562 236.894531 103.023438 190.738281 103.023438 " fill-opacity="1" fill-rule="nonzero"/></g><path fill="rgb(100%, 96.469116%, 86.669922%)" d="M 155.527344 173.171875 C 155.527344 172.398438 156.996094 171.671875 159.589844 171.03125 C 153.519531 171.847656 149.804688 172.945312 149.804688 174.152344 C 149.804688 176.691406 166.226562 178.746094 186.480469 178.746094 C 201.792969 178.746094 214.910156 177.570312 220.40625 175.902344 C 213.878906 177.054688 203.324219 177.804688 191.40625 177.804688 C 171.59375 177.804688 155.527344 175.730469 155.527344 173.171875 " fill-opacity="1" fill-rule="nonzero"/><path fill="rgb(100%, 96.469116%, 86.669922%)" d="M 210.558594 227.648438 C 210.554688 227.683594 210.542969 227.730469 210.53125 227.792969 C 210.503906 227.917969 210.460938 228.105469 210.394531 228.335938 C 210.328125 228.566406 210.234375 228.84375 210.117188 229.160156 C 209.996094 229.472656 209.847656 229.824219 209.664062 230.195312 C 209.574219 230.382812 209.46875 230.574219 209.363281 230.769531 C 209.253906 230.964844 209.132812 231.164062 209.007812 231.367188 C 208.753906 231.769531 208.460938 232.183594 208.128906 232.589844 C 207.964844 232.789062 207.789062 232.992188 207.605469 233.1875 C 207.511719 233.289062 207.417969 233.386719 207.320312 233.484375 C 207.222656 233.578125 207.125 233.675781 207.023438 233.765625 C 206.972656 233.8125 206.921875 233.859375 206.871094 233.90625 C 206.820312 233.953125 206.765625 234 206.714844 234.046875 C 206.613281 234.136719 206.503906 234.222656 206.394531 234.3125 C 206.175781 234.488281 205.953125 234.65625 205.71875 234.816406 C 205.257812 235.132812 204.773438 235.421875 204.273438 235.660156 C 204.148438 235.71875 204.027344 235.78125 203.898438 235.835938 C 203.835938 235.863281 203.773438 235.886719 203.710938 235.914062 L 203.617188 235.957031 L 203.523438 235.992188 C 203.398438 236.039062 203.273438 236.089844 203.148438 236.132812 C 203.019531 236.179688 202.894531 236.222656 202.769531 236.261719 C 202.273438 236.417969 201.777344 236.539062 201.308594 236.621094 C 200.835938 236.707031 200.386719 236.75 199.972656 236.78125 C 199.765625 236.789062 199.566406 236.800781 199.378906 236.800781 C 199.285156 236.800781 199.191406 236.804688 199.101562 236.800781 C 199.011719 236.800781 198.925781 236.800781 198.84375 236.796875 C 198.675781 236.792969 198.519531 236.78125 198.375 236.773438 C 198.230469 236.765625 198.097656 236.75 197.980469 236.738281 C 197.738281 236.71875 197.554688 236.6875 197.425781 236.667969 C 197.300781 236.648438 197.230469 236.640625 197.230469 236.640625 C 197.230469 236.640625 197.300781 236.632812 197.425781 236.625 C 197.492188 236.621094 197.570312 236.617188 197.660156 236.609375 C 197.707031 236.605469 197.757812 236.601562 197.8125 236.597656 C 197.863281 236.59375 197.921875 236.589844 197.980469 236.582031 C 198.097656 236.574219 198.226562 236.5625 198.371094 236.546875 C 198.515625 236.53125 198.667969 236.519531 198.832031 236.496094 C 198.910156 236.488281 198.996094 236.476562 199.082031 236.464844 C 199.167969 236.457031 199.257812 236.441406 199.347656 236.425781 C 199.4375 236.414062 199.53125 236.402344 199.628906 236.382812 C 199.722656 236.367188 199.820312 236.351562 199.917969 236.332031 C 200.019531 236.316406 200.117188 236.292969 200.222656 236.273438 C 200.324219 236.253906 200.429688 236.234375 200.535156 236.210938 C 200.636719 236.183594 200.746094 236.164062 200.851562 236.136719 C 200.960938 236.109375 201.070312 236.082031 201.183594 236.050781 C 201.625 235.933594 202.082031 235.789062 202.546875 235.613281 C 202.660156 235.570312 202.777344 235.519531 202.894531 235.472656 C 203.011719 235.425781 203.125 235.375 203.242188 235.324219 C 203.476562 235.21875 203.707031 235.105469 203.9375 234.988281 C 204.398438 234.75 204.847656 234.476562 205.28125 234.179688 C 205.71875 233.882812 206.128906 233.554688 206.519531 233.210938 C 206.714844 233.039062 206.902344 232.863281 207.085938 232.683594 C 207.175781 232.59375 207.265625 232.503906 207.351562 232.414062 C 207.441406 232.320312 207.527344 232.230469 207.609375 232.140625 C 207.945312 231.769531 208.253906 231.402344 208.53125 231.035156 C 208.808594 230.671875 209.058594 230.3125 209.277344 229.976562 C 209.496094 229.636719 209.683594 229.320312 209.847656 229.03125 C 210.007812 228.746094 210.144531 228.492188 210.25 228.277344 C 210.355469 228.066406 210.4375 227.898438 210.488281 227.78125 C 210.542969 227.664062 210.566406 227.601562 210.566406 227.601562 Z M 211.070312 222.738281 C 208.710938 225.816406 205.179688 227.441406 201.753906 229.023438 C 198.816406 230.378906 196.015625 231.671875 193.882812 233.789062 C 193.730469 233.941406 193.621094 234.140625 193.585938 234.355469 C 193.535156 234.679688 193.628906 235.113281 194.144531 235.601562 C 197.445312 238.699219 203.292969 238.246094 207.546875 234.449219 C 211.257812 231.136719 212.582031 226.324219 211.070312 222.738281 " fill-opacity="1" fill-rule="nonzero"/><g clip-path="url(#id2)"><g clip-path="url(#id3)"><g clip-path="url(#id4)"><path fill="rgb(29.40979%, 23.529053%, 16.468811%)" d="M 120.789062 233.136719 C 114.566406 223.675781 110.378906 213.28125 108.339844 202.242188 C 106.371094 191.582031 106.480469 180.773438 108.664062 170.121094 C 110.847656 159.46875 114.996094 149.5 120.992188 140.5 C 127.203125 131.183594 135.132812 123.316406 144.5625 117.117188 C 153.992188 110.917969 164.359375 106.757812 175.375 104.75 C 186.015625 102.8125 196.808594 102.953125 207.457031 105.175781 C 218.101562 107.398438 228.066406 111.582031 237.074219 117.613281 C 246.398438 123.863281 254.28125 131.828125 260.5 141.292969 C 260.691406 141.582031 260.609375 141.96875 260.320312 142.160156 C 260.03125 142.347656 259.644531 142.269531 259.453125 141.976562 C 234.425781 103.90625 183.195312 93.222656 145.253906 118.167969 C 107.3125 143.109375 96.804688 194.378906 121.832031 232.449219 C 146.859375 270.523438 198.09375 281.203125 236.035156 256.261719 C 244.339844 250.800781 251.492188 243.996094 257.296875 236.03125 C 257.5 235.753906 257.890625 235.695312 258.171875 235.898438 C 258.449219 236.101562 258.511719 236.496094 258.308594 236.773438 C 252.417969 244.859375 245.15625 251.765625 236.722656 257.308594 C 227.292969 263.507812 216.925781 267.671875 205.910156 269.679688 C 195.273438 271.613281 184.476562 271.472656 173.832031 269.253906 C 163.183594 267.03125 153.21875 262.847656 144.214844 256.8125 C 134.890625 250.566406 127.007812 242.597656 120.789062 233.136719 Z M 120.789062 233.136719 " fill-opacity="1" fill-rule="nonzero"/></g></g></g><g clip-path="url(#id5)"><g clip-path="url(#id6)"><g clip-path="url(#id7)"><path fill="rgb(29.40979%, 23.529053%, 16.468811%)" d="M 140.320312 120.910156 C 140.3125 120.902344 140.308594 120.894531 140.304688 120.886719 C 140.144531 120.617188 140.207031 120.265625 140.453125 120.074219 C 144.21875 117.101562 146.664062 115.574219 150.414062 114.9375 C 152.660156 114.558594 154.984375 114.644531 156.988281 114.753906 C 162.066406 115.03125 167.1875 115.613281 172.207031 116.484375 L 172.925781 116.609375 C 175.125 116.996094 177.402344 117.398438 179.613281 117.253906 C 181.773438 117.109375 183.886719 116.449219 185.738281 115.339844 C 186.015625 115.171875 186.375 115.246094 186.566406 115.511719 C 186.753906 115.769531 186.714844 116.140625 186.46875 116.351562 C 183.636719 118.804688 180.21875 120.566406 176.574219 121.453125 C 171.109375 122.78125 165.320312 122.105469 159.875 121.179688 C 159.425781 121.101562 158.972656 121.023438 158.519531 120.945312 C 153.78125 120.117188 148.882812 119.261719 144.261719 120.34375 C 143.976562 120.410156 143.671875 120.472656 143.355469 120.535156 C 142.554688 120.699219 141.722656 120.867188 141.089844 121.140625 C 140.808594 121.261719 140.484375 121.164062 140.320312 120.910156 Z M 150.628906 116.175781 C 147.988281 116.621094 146.070312 117.527344 143.714844 119.183594 C 143.804688 119.164062 143.894531 119.144531 143.980469 119.125 C 148.847656 117.988281 153.875 118.863281 158.734375 119.710938 C 159.183594 119.792969 159.636719 119.871094 160.082031 119.945312 C 165.394531 120.851562 171.03125 121.511719 176.273438 120.238281 C 178.0625 119.804688 179.789062 119.144531 181.417969 118.289062 C 180.851562 118.394531 180.277344 118.464844 179.703125 118.503906 C 177.335938 118.660156 174.984375 118.246094 172.714844 117.84375 L 172 117.71875 C 167.027344 116.859375 161.957031 116.28125 156.929688 116.007812 C 154.902344 115.894531 152.746094 115.816406 150.628906 116.175781 Z M 150.628906 116.175781 " fill-opacity="1" fill-rule="nonzero"/></g></g></g><g clip-path="url(#id8)"><g clip-path="url(#id9)"><g clip-path="url(#id10)"><path fill="rgb(29.40979%, 23.529053%, 16.468811%)" d="M 109.289062 168.421875 C 109.199219 168.289062 109.164062 168.121094 109.199219 167.953125 C 110.167969 163.246094 111.058594 160.496094 113.515625 157.597656 C 114.984375 155.863281 116.816406 154.429688 118.421875 153.21875 C 122.476562 150.164062 126.761719 147.316406 131.15625 144.753906 L 131.785156 144.390625 C 133.714844 143.273438 135.710938 142.113281 137.308594 140.578125 C 138.867188 139.078125 140.058594 137.207031 140.757812 135.167969 C 140.863281 134.859375 141.1875 134.6875 141.5 134.765625 C 141.816406 134.847656 142.019531 135.152344 141.96875 135.472656 C 141.378906 139.175781 139.898438 142.734375 137.683594 145.761719 C 134.359375 150.300781 129.503906 153.507812 124.75 156.296875 C 124.355469 156.53125 123.960938 156.761719 123.5625 156.992188 C 119.414062 159.40625 115.125 161.902344 112.289062 165.707031 C 112.113281 165.941406 111.917969 166.1875 111.71875 166.4375 C 111.210938 167.078125 110.683594 167.742188 110.375 168.359375 C 110.234375 168.640625 109.90625 168.773438 109.609375 168.671875 C 109.472656 168.625 109.363281 168.535156 109.289062 168.421875 Z M 114.46875 158.410156 C 112.738281 160.453125 111.851562 162.378906 111.117188 165.171875 C 111.175781 165.097656 111.226562 165.027344 111.28125 164.957031 C 114.269531 160.945312 118.671875 158.386719 122.929688 155.910156 C 123.324219 155.679688 123.71875 155.449219 124.113281 155.21875 C 128.75 152.496094 133.480469 149.375 136.667969 145.019531 C 137.753906 143.539062 138.65625 141.917969 139.347656 140.214844 C 138.984375 140.660156 138.59375 141.082031 138.175781 141.484375 C 136.46875 143.125 134.40625 144.320312 132.414062 145.476562 L 131.789062 145.839844 C 127.433594 148.378906 123.191406 151.199219 119.171875 154.226562 C 117.554688 155.441406 115.855469 156.769531 114.46875 158.410156 Z M 114.46875 158.410156 " fill-opacity="1" fill-rule="nonzero"/></g></g></g><g clip-path="url(#id11)"><g clip-path="url(#id12)"><g clip-path="url(#id13)"><path fill="rgb(29.40979%, 23.529053%, 16.468811%)" d="M 107.714844 197.238281 C 107.664062 197.164062 107.632812 197.078125 107.617188 196.984375 C 106.917969 192.226562 106.816406 189.332031 108.128906 185.765625 C 108.917969 183.628906 110.148438 181.652344 111.238281 179.96875 C 114.003906 175.703125 117.054688 171.558594 120.304688 167.640625 L 120.769531 167.082031 C 122.195312 165.371094 123.671875 163.597656 124.652344 161.605469 C 125.597656 159.660156 126.078125 157.492188 126.039062 155.332031 C 126.03125 155.007812 126.277344 154.734375 126.601562 154.699219 C 126.925781 154.667969 127.21875 154.886719 127.28125 155.207031 C 127.992188 158.894531 127.816406 162.75 126.773438 166.351562 C 125.203125 171.761719 121.742188 176.441406 118.230469 180.695312 C 117.941406 181.046875 117.648438 181.398438 117.355469 181.75 C 114.285156 185.445312 111.109375 189.261719 109.746094 193.8125 C 109.664062 194.09375 109.5625 194.390625 109.460938 194.695312 C 109.203125 195.472656 108.9375 196.277344 108.855469 196.964844 C 108.820312 197.277344 108.558594 197.515625 108.246094 197.519531 C 108.027344 197.527344 107.828125 197.414062 107.714844 197.238281 Z M 109.304688 186.203125 C 108.378906 188.71875 108.207031 190.835938 108.46875 193.710938 C 108.496094 193.625 108.523438 193.539062 108.550781 193.453125 C 109.984375 188.660156 113.242188 184.742188 116.394531 180.953125 C 116.683594 180.601562 116.976562 180.25 117.265625 179.898438 C 120.6875 175.75 124.066406 171.195312 125.570312 166.003906 C 126.082031 164.238281 126.375 162.40625 126.441406 160.566406 C 126.25 161.109375 126.027344 161.640625 125.777344 162.160156 C 124.734375 164.292969 123.207031 166.121094 121.730469 167.890625 L 121.265625 168.445312 C 118.046875 172.324219 115.027344 176.433594 112.289062 180.65625 C 111.1875 182.359375 110.050781 184.1875 109.304688 186.203125 Z M 109.304688 186.203125 " fill-opacity="1" fill-rule="nonzero"/></g></g></g><g clip-path="url(#id14)"><g clip-path="url(#id15)"><g clip-path="url(#id16)"><path fill="rgb(29.40979%, 23.529053%, 16.468811%)" d="M 104.289062 183.847656 C 103.03125 181.933594 102.15625 179.773438 101.75 177.511719 C 101.347656 175.265625 101.40625 172.933594 101.496094 170.925781 C 101.71875 165.839844 102.242188 160.710938 103.058594 155.679688 L 103.179688 154.960938 C 103.542969 152.757812 103.917969 150.476562 103.75 148.261719 C 103.582031 146.101562 102.898438 143.984375 101.773438 142.140625 C 101.601562 141.859375 101.671875 141.5 101.933594 141.308594 C 102.195312 141.113281 102.558594 141.15625 102.777344 141.398438 C 105.253906 144.222656 107.054688 147.640625 107.976562 151.285156 C 109.363281 156.75 108.753906 162.550781 107.882812 168.003906 C 107.8125 168.457031 107.738281 168.910156 107.664062 169.363281 C 106.890625 174.113281 106.089844 179.019531 107.21875 183.640625 C 107.453125 184.613281 107.78125 185.574219 108.1875 186.5 C 108.308594 186.769531 108.222656 187.085938 107.984375 187.261719 C 107.746094 187.433594 107.417969 187.417969 107.199219 187.222656 C 106.082031 186.226562 105.105469 185.089844 104.289062 183.847656 Z M 102.984375 177.292969 C 103.4375 179.796875 104.503906 182.167969 106.0625 184.175781 C 106.042969 184.097656 106.023438 184.015625 106 183.933594 C 104.8125 179.066406 105.632812 174.03125 106.429688 169.160156 C 106.503906 168.707031 106.574219 168.253906 106.648438 167.804688 C 107.492188 162.484375 108.09375 156.835938 106.761719 151.589844 C 106.308594 149.804688 105.632812 148.074219 104.765625 146.449219 C 104.875 147.015625 104.953125 147.589844 104.996094 148.167969 C 105.175781 150.535156 104.789062 152.890625 104.414062 155.167969 L 104.296875 155.882812 C 103.488281 160.867188 102.96875 165.945312 102.746094 170.984375 C 102.65625 173.015625 102.601562 175.171875 102.984375 177.292969 Z M 102.984375 177.292969 " fill-opacity="1" fill-rule="nonzero"/></g></g></g><g clip-path="url(#id17)"><g clip-path="url(#id18)"><g clip-path="url(#id19)"><path fill="rgb(29.40979%, 23.529053%, 16.468811%)" d="M 116.078125 224.890625 C 116.070312 224.875 116.058594 224.859375 116.050781 224.84375 C 113.769531 220.605469 112.683594 217.921875 112.699219 214.113281 C 112.707031 211.832031 113.1875 209.550781 113.636719 207.59375 C 114.777344 202.636719 116.222656 197.691406 117.9375 192.894531 L 118.179688 192.207031 C 118.9375 190.105469 119.71875 187.9375 119.953125 185.726562 C 120.183594 183.574219 119.890625 181.367188 119.117188 179.351562 C 119 179.046875 119.136719 178.707031 119.429688 178.5625 C 119.71875 178.421875 120.074219 178.53125 120.238281 178.808594 C 122.167969 182.03125 123.316406 185.71875 123.566406 189.46875 C 123.941406 195.09375 122.289062 200.683594 120.449219 205.886719 C 120.296875 206.316406 120.144531 206.75 119.988281 207.179688 C 118.367188 211.707031 116.691406 216.382812 116.96875 221.132812 C 116.984375 221.425781 116.992188 221.738281 117 222.0625 C 117.023438 222.882812 117.046875 223.730469 117.207031 224.40625 C 117.28125 224.710938 117.117188 225.023438 116.820312 225.132812 C 116.550781 225.238281 116.238281 225.132812 116.078125 224.890625 Z M 113.953125 214.121094 C 113.941406 216.804688 114.503906 218.851562 115.734375 221.472656 C 115.730469 221.378906 115.726562 221.289062 115.71875 221.199219 C 115.429688 216.199219 117.148438 211.398438 118.8125 206.753906 C 118.96875 206.320312 119.121094 205.894531 119.273438 205.460938 C 121.066406 200.386719 122.679688 194.945312 122.320312 189.546875 C 122.195312 187.707031 121.847656 185.886719 121.285156 184.132812 C 121.289062 184.710938 121.261719 185.289062 121.203125 185.863281 C 120.949219 188.222656 120.140625 190.464844 119.363281 192.636719 L 119.117188 193.320312 C 117.417969 198.070312 115.988281 202.96875 114.863281 207.878906 C 114.40625 209.855469 113.964844 211.96875 113.953125 214.121094 Z M 113.953125 214.121094 " fill-opacity="1" fill-rule="nonzero"/></g></g></g><g clip-path="url(#id20)"><g clip-path="url(#id21)"><g clip-path="url(#id22)"><path fill="rgb(29.40979%, 23.529053%, 16.468811%)" d="M 268.597656 219.835938 C 268.421875 219.949219 268.234375 220.023438 268.03125 220.0625 C 267.828125 220.101562 267.625 220.101562 267.421875 220.058594 C 267.21875 220.015625 267.03125 219.933594 266.859375 219.820312 C 266.6875 219.703125 266.542969 219.554688 266.429688 219.382812 C 266.3125 219.207031 266.238281 219.019531 266.199219 218.816406 C 266.160156 218.609375 266.160156 218.40625 266.203125 218.203125 C 266.242188 218 266.324219 217.8125 266.4375 217.640625 C 266.554688 217.46875 266.699219 217.324219 266.875 217.210938 C 267.046875 217.097656 267.234375 217.023438 267.4375 216.984375 C 267.644531 216.945312 267.847656 216.945312 268.050781 216.988281 C 268.253906 217.03125 268.441406 217.109375 268.613281 217.226562 C 268.785156 217.34375 268.925781 217.492188 269.042969 217.664062 C 269.15625 217.839844 269.234375 218.027344 269.273438 218.230469 C 269.3125 218.4375 269.308594 218.640625 269.269531 218.84375 C 269.226562 219.046875 269.148438 219.234375 269.03125 219.40625 C 268.914062 219.578125 268.769531 219.71875 268.597656 219.835938 Z M 268.597656 219.835938 " fill-opacity="1" fill-rule="nonzero"/></g></g></g><g clip-path="url(#id23)"><g clip-path="url(#id24)"><g clip-path="url(#id25)"><path fill="rgb(29.40979%, 23.529053%, 16.468811%)" d="M 274 198.8125 C 273.828125 198.925781 273.640625 199.003906 273.433594 199.042969 C 273.230469 199.082031 273.027344 199.078125 272.824219 199.035156 C 272.621094 198.992188 272.433594 198.914062 272.261719 198.796875 C 272.089844 198.679688 271.945312 198.535156 271.832031 198.359375 C 271.71875 198.1875 271.640625 197.996094 271.601562 197.792969 C 271.5625 197.589844 271.5625 197.386719 271.605469 197.183594 C 271.648438 196.976562 271.726562 196.789062 271.84375 196.617188 C 271.960938 196.449219 272.105469 196.304688 272.277344 196.191406 C 272.449219 196.078125 272.640625 196 272.84375 195.960938 C 273.046875 195.921875 273.25 195.925781 273.453125 195.96875 C 273.65625 196.007812 273.84375 196.089844 274.015625 196.207031 C 274.1875 196.324219 274.332031 196.46875 274.445312 196.644531 C 274.558594 196.816406 274.636719 197.003906 274.675781 197.210938 C 274.714844 197.414062 274.714844 197.617188 274.671875 197.820312 C 274.628906 198.023438 274.550781 198.210938 274.433594 198.382812 C 274.320312 198.554688 274.175781 198.699219 274 198.8125 Z M 274 198.8125 " fill-opacity="1" fill-rule="nonzero"/></g></g></g><g clip-path="url(#id26)"><g clip-path="url(#id27)"><g clip-path="url(#id28)"><path fill="rgb(29.40979%, 23.529053%, 16.468811%)" d="M 273.78125 177.089844 C 273.605469 177.203125 273.417969 177.28125 273.214844 177.320312 C 273.011719 177.359375 272.804688 177.355469 272.601562 177.3125 C 272.398438 177.269531 272.210938 177.191406 272.039062 177.074219 C 271.867188 176.957031 271.726562 176.8125 271.609375 176.636719 C 271.496094 176.464844 271.421875 176.277344 271.378906 176.070312 C 271.339844 175.867188 271.34375 175.664062 271.382812 175.460938 C 271.425781 175.257812 271.503906 175.070312 271.621094 174.898438 C 271.738281 174.726562 271.882812 174.582031 272.054688 174.46875 C 272.230469 174.355469 272.417969 174.277344 272.621094 174.238281 C 272.824219 174.199219 273.027344 174.203125 273.230469 174.246094 C 273.433594 174.289062 273.625 174.367188 273.796875 174.484375 C 273.96875 174.601562 274.109375 174.746094 274.222656 174.921875 C 274.339844 175.09375 274.414062 175.285156 274.453125 175.488281 C 274.492188 175.691406 274.492188 175.894531 274.449219 176.097656 C 274.410156 176.300781 274.332031 176.488281 274.214844 176.660156 C 274.097656 176.832031 273.953125 176.976562 273.78125 177.089844 Z M 273.78125 177.089844 " fill-opacity="1" fill-rule="nonzero"/></g></g></g><g clip-path="url(#id29)"><g clip-path="url(#id30)"><g clip-path="url(#id31)"><path fill="rgb(29.40979%, 23.529053%, 16.468811%)" d="M 267.957031 156.148438 C 267.78125 156.261719 267.59375 156.335938 267.390625 156.375 C 267.1875 156.414062 266.984375 156.414062 266.777344 156.371094 C 266.574219 156.328125 266.386719 156.25 266.214844 156.132812 C 266.042969 156.015625 265.902344 155.867188 265.789062 155.695312 C 265.671875 155.519531 265.597656 155.332031 265.558594 155.128906 C 265.515625 154.925781 265.519531 154.71875 265.558594 154.515625 C 265.601562 154.3125 265.679688 154.125 265.796875 153.953125 C 265.914062 153.78125 266.058594 153.640625 266.230469 153.523438 C 266.40625 153.410156 266.59375 153.335938 266.796875 153.296875 C 267 153.257812 267.203125 153.257812 267.40625 153.300781 C 267.613281 153.34375 267.800781 153.425781 267.972656 153.542969 C 268.144531 153.65625 268.285156 153.804688 268.398438 153.976562 C 268.515625 154.152344 268.589844 154.339844 268.628906 154.542969 C 268.667969 154.75 268.667969 154.953125 268.625 155.15625 C 268.585938 155.359375 268.507812 155.546875 268.390625 155.71875 C 268.273438 155.890625 268.128906 156.035156 267.957031 156.148438 Z M 267.957031 156.148438 " fill-opacity="1" fill-rule="nonzero"/></g></g></g><path fill="rgb(100%, 96.469116%, 86.669922%)" d="M 121.566406 147.515625 C 114.714844 147.515625 109.160156 162.15625 109.160156 180.21875 C 109.160156 198.28125 114.714844 212.925781 121.566406 212.925781 C 128.417969 212.925781 133.972656 198.28125 133.972656 180.21875 C 133.972656 162.15625 128.417969 147.515625 121.566406 147.515625 " fill-opacity="1" fill-rule="nonzero"/><path fill="rgb(100%, 96.469116%, 86.669922%)" d="M 113.113281 161.859375 C 110.941406 161.65625 108.59375 167.777344 107.871094 175.527344 C 107.144531 183.28125 108.316406 189.730469 110.488281 189.929688 C 112.660156 190.132812 115.007812 184.015625 115.730469 176.261719 C 116.457031 168.511719 115.285156 162.0625 113.113281 161.859375 " fill-opacity="1" fill-rule="nonzero"/><path fill="rgb(100%, 65.098572%, 34.509277%)" d="M 187.660156 169.714844 C 173.171875 169.253906 161.371094 170.554688 161.304688 172.625 C 161.238281 174.695312 172.933594 176.75 187.421875 177.210938 C 201.910156 177.671875 213.710938 176.371094 213.777344 174.300781 C 213.84375 172.230469 202.152344 170.175781 187.660156 169.714844 " fill-opacity="1" fill-rule="nonzero"/><path fill="rgb(100%, 96.469116%, 86.669922%)" d="M 196.398438 170.890625 C 189.777344 170.679688 184.367188 171.683594 184.320312 173.132812 C 184.277344 174.582031 189.609375 175.929688 196.230469 176.140625 C 202.855469 176.351562 208.261719 175.347656 208.308594 173.898438 C 208.355469 172.449219 203.023438 171.105469 196.398438 170.890625 " fill-opacity="1" fill-rule="nonzero"/><path fill="rgb(100%, 96.469116%, 86.669922%)" d="M 205.699219 202.371094 C 193.894531 202.371094 184.324219 211.605469 184.324219 222.996094 C 184.324219 234.386719 193.894531 243.621094 205.699219 243.621094 C 217.503906 243.621094 227.074219 234.386719 227.074219 222.996094 C 227.074219 211.605469 217.503906 202.371094 205.699219 202.371094 " fill-opacity="1" fill-rule="nonzero"/><g fill="rgb(21.569824%, 17.248535%, 12.159729%)" fill-opacity="1"><g transform="translate(131.891352, 307.731178)"><g><path d="M 8.890625 -9.40625 L 15.574219 -6.320312 L 16.609375 -8.554688 L 7.6875 -12.675781 L 1.507812 0.695312 L 10.429688 4.820312 L 11.464844 2.582031 L 4.777344 -0.503906 L 6.320312 -3.847656 L 11.878906 -1.28125 L 12.90625 -3.496094 L 7.34375 -6.066406 Z M 8.890625 -9.40625 "/></g></g></g><g fill="rgb(21.569824%, 17.248535%, 12.159729%)" fill-opacity="1"><g transform="translate(148.056328, 314.749214)"><g><path d="M 5.445312 1.84375 C 7.722656 2.523438 10.28125 1.679688 11.085938 -1.019531 C 11.585938 -2.695312 11.199219 -4.347656 9.910156 -5.476562 C 9.042969 -6.242188 8.054688 -6.535156 7.953125 -6.566406 C 6.902344 -6.878906 6.082031 -7.804688 6.429688 -8.976562 C 6.820312 -10.285156 7.960938 -10.648438 9.070312 -10.316406 C 10.140625 -10 10.890625 -9.203125 10.582031 -8.023438 L 12.921875 -7.324219 C 13.597656 -9.738281 12.214844 -11.949219 9.773438 -12.675781 C 7.496094 -13.355469 4.871094 -12.359375 4.070312 -9.679688 C 3.570312 -8.003906 4.027344 -6.507812 5.292969 -5.382812 C 6.183594 -4.613281 7.152344 -4.324219 7.273438 -4.289062 C 8.207031 -3.964844 9.101562 -2.910156 8.746094 -1.71875 C 8.417969 -0.609375 7.238281 -0.191406 6.148438 -0.515625 C 5.101562 -0.828125 4.304688 -1.703125 4.613281 -2.882812 L 2.253906 -3.585938 C 1.507812 -0.933594 3.023438 1.054688 5.445312 1.84375 Z M 5.445312 1.84375 "/></g></g></g><g fill="rgb(21.569824%, 17.248535%, 12.159729%)" fill-opacity="1"><g transform="translate(164.091069, 319.109669)"><g><path d="M 10.914062 -10.882812 L 11.273438 -13.109375 L 2.753906 -14.476562 L 2.398438 -12.253906 L 5.449219 -11.761719 L 3.46875 0.558594 L 5.878906 0.945312 L 7.859375 -11.375 Z M 10.914062 -10.882812 "/></g></g></g><g fill="rgb(21.569824%, 17.248535%, 12.159729%)" fill-opacity="1"><g transform="translate(190.885278, 321.449048)"><g><path d="M 9.320312 -0.644531 L 9.152344 -3.101562 L 3.566406 -2.714844 L 7.53125 -8.832031 C 9.851562 -12.535156 6.949219 -15.433594 4.011719 -15.234375 C 1.15625 -15.035156 0.00390625 -13.078125 0.167969 -10.726562 L 2.476562 -10.886719 C 2.390625 -12.144531 3.300781 -12.714844 4.179688 -12.777344 C 5.441406 -12.863281 6.457031 -11.605469 5.371094 -9.882812 L 0.601562 -2.277344 L 0.753906 -0.0507812 Z M 9.320312 -0.644531 "/></g></g></g><g fill="rgb(21.569824%, 17.248535%, 12.159729%)" fill-opacity="1"><g transform="translate(206.358418, 320.078257)"><g><path d="M 9.175781 -6.101562 L 7.84375 -12.507812 C 6.710938 -17.96875 -1.695312 -16.21875 -0.5625 -10.757812 L 0.773438 -4.351562 C 1.90625 1.109375 10.3125 -0.640625 9.175781 -6.101562 Z M 5.394531 -12.191406 L 6.792969 -5.476562 C 7.28125 -3.125 3.699219 -2.359375 3.207031 -4.730469 L 1.8125 -11.445312 C 1.328125 -13.773438 4.90625 -14.539062 5.394531 -12.191406 Z M 5.394531 -12.191406 "/></g></g></g><g fill="rgb(21.569824%, 17.248535%, 12.159729%)" fill-opacity="1"><g transform="translate(223.018751, 316.197856)"><g><path d="M 8.804688 -3.125 L 7.980469 -5.445312 L 2.707031 -3.574219 L 4.882812 -10.53125 C 6.117188 -14.722656 2.542969 -16.734375 -0.230469 -15.75 C -2.929688 -14.792969 -3.511719 -12.597656 -2.722656 -10.378906 L -0.542969 -11.152344 C -0.964844 -12.339844 -0.242188 -13.132812 0.589844 -13.429688 C 1.78125 -13.851562 3.097656 -12.914062 2.515625 -10.964844 L -0.03125 -2.355469 L 0.714844 -0.253906 Z M 8.804688 -3.125 "/></g></g></g><g fill="rgb(21.569824%, 17.248535%, 12.159729%)" fill-opacity="1"><g transform="translate(237.426934, 310.668283)"><g><path d="M 4.816406 -2.363281 L -1.667969 -15.589844 L -3.539062 -14.671875 L -5.777344 -11.535156 L -4.261719 -10.308594 L -2.648438 -11.992188 L 2.605469 -1.277344 Z M 4.816406 -2.363281 "/></g></g></g></svg>