<svg xmlns="http://www.w3.org/2000/svg" viewBox="0 0 24 24" width="24" height="24" fill="none" stroke="#000000" stroke-width="1.5" stroke-linecap="round" stroke-linejoin="round">&lt;!--!  Atomicons Free 1.00 by @atisalab License - https://atomicons.com/license/ (Icons: CC BY 4.0) Copyright 2021 Atomicons --&gt;<circle cx="12" cy="12" r="4"></circle><path d="M16,8v5a3,3,0,0,0,3,3h0a3,3,0,0,0,3-3V12a9.87,9.87,0,0,0-.79-3.89,10,10,0,0,0-5.32-5.32,10,10,0,0,0-7.78,0A10,10,0,0,0,2.79,8.11a10,10,0,0,0,0,7.78,10,10,0,0,0,5.32,5.32,10,10,0,0,0,7.78,0"></path></svg>