<svg xmlns="http://www.w3.org/2000/svg" viewBox="0 0 24 24" width="24" height="24" fill="none" stroke="#000000" stroke-width="1.5" stroke-linecap="round" stroke-linejoin="round">&lt;!--!  Atomicons Free 1.00 by @atisalab License - https://atomicons.com/license/ (Icons: CC BY 4.0) Copyright 2021 Atomicons --&gt;<circle cx="12" cy="12" r="3"></circle><path d="M19.74,14H21a1,1,0,0,0,1-1V11a1,1,0,0,0-1-1H19.74l0-.14a8.17,8.17,0,0,0-.82-1.92l.89-.89a1,1,0,0,0,0-1.41L18.36,4.22a1,1,0,0,0-1.41,0l-.89.89A8,8,0,0,0,14,4.25V3a1,1,0,0,0-1-1H11a1,1,0,0,0-1,1V4.25a8,8,0,0,0-2.06.86l-.89-.89a1,1,0,0,0-1.41,0L4.22,5.64a1,1,0,0,0,0,1.41l.89.89a8.17,8.17,0,0,0-.82,1.92l0,.14H3a1,1,0,0,0-1,1v2a1,1,0,0,0,1,1H4.26l0,.14a8.17,8.17,0,0,0,.82,1.92L4.22,17a1,1,0,0,0,0,1.41l1.42,1.42a1,1,0,0,0,1.41,0l.89-.89a8,8,0,0,0,2.06.86V21a1,1,0,0,0,1,1h2a1,1,0,0,0,1-1V19.75a8,8,0,0,0,2.06-.86l.89.89a1,1,0,0,0,1.41,0l1.42-1.42a1,1,0,0,0,0-1.41l-.89-.89a8.17,8.17,0,0,0,.82-1.92Z"></path></svg>